Martel-DemiBold.ufo
<glyph name="numbersign" format="1">
  <advance width="699"/>
  <unicode hex="0023"/>
  <outline>
    <contour>
      <point x="167" y="0" type="line"/>
      <point x="247" y="0" type="line"/>
      <point x="262" y="178" type="line"/>
      <point x="416" y="178" type="line"/>
      <point x="404" y="0" type="line"/>
      <point x="482" y="0" type="line"/>
      <point x="497" y="178" type="line"/>
      <point x="609" y="178" type="line"/>
      <point x="609" y="199"/>
      <point x="608" y="220"/>
      <point x="608" y="241" type="curve"/>
      <point x="500" y="241" type="line"/>
      <point x="516" y="438" type="line"/>
      <point x="625" y="438" type="line"/>
      <point x="625" y="500" type="line"/>
      <point x="520" y="500" type="line"/>
      <point x="532" y="662" type="line"/>
      <point x="451" y="662" type="line"/>
      <point x="438" y="500" type="line"/>
      <point x="285" y="500" type="line"/>
      <point x="297" y="662" type="line"/>
      <point x="216" y="662" type="line"/>
      <point x="203" y="500" type="line"/>
      <point x="84" y="500" type="line"/>
      <point x="84" y="438" type="line"/>
      <point x="200" y="438" type="line"/>
      <point x="184" y="241" type="line"/>
      <point x="73" y="241" type="line"/>
      <point x="73" y="178" type="line"/>
      <point x="181" y="178" type="line"/>
    </contour>
    <contour>
      <point x="265" y="241" type="line"/>
      <point x="281" y="438" type="line"/>
      <point x="435" y="438" type="line"/>
      <point x="418" y="241" type="line"/>
    </contour>
  </outline>
</glyph>
<glyph name="comma" format="1">
  <advance width="334"/>
  <unicode hex="002C"/>
  <outline>
    <contour>
      <point x="96" y="43" type="line"/>
      <point x="133" y="40"/>
      <point x="166" y="-10"/>
      <point x="166" y="-59" type="curve" smooth="yes"/>
      <point x="166" y="-121"/>
      <point x="125" y="-186"/>
      <point x="78" y="-201" type="curve"/>
      <point x="78" y="-214" type="line"/>
      <point x="101" y="-243" type="line"/>
      <point x="177" y="-212"/>
      <point x="256" y="-132"/>
      <point x="256" y="-21" type="curve" smooth="yes"/>
      <point x="256" y="32"/>
      <point x="228" y="117"/>
      <point x="150" y="136" type="curve"/>
      <point x="96" y="65" type="line"/>
    </contour>
  </outline>
</glyph>
<glyph name="equal" format="1">
  <advance width="606"/>
  <unicode hex="003D"/>
  <outline>
    <contour>
      <point x="87" y="446" type="line"/>
      <point x="519" y="446" type="line"/>
      <point x="519" y="518" type="line"/>
      <point x="87" y="518" type="line"/>
    </contour>
    <contour>
      <point x="87" y="256" type="line"/>
      <point x="519" y="256" type="line"/>
      <point x="519" y="328" type="line"/>
      <point x="87" y="328" type="line"/>
    </contour>
  </outline>
</glyph>
<glyph name="A" format="1">
  <advance width="729"/>
  <unicode hex="0041"/>
  <outline>
    <contour>
      <point x="1" y="0" type="line"/>
      <point x="234" y="0" type="line"/>
      <point x="234" y="42" type="line"/>
      <point x="153" y="56" type="line"/>
      <point x="206" y="213" type="line"/>
      <point x="499" y="213" type="line"/>
      <point x="551" y="56" type="line"/>
      <point x="470" y="42" type="line"/>
      <point x="470" y="0" type="line"/>
      <point x="728" y="0" type="line"/>
      <point x="728" y="42" type="line"/>
      <point x="650" y="56" type="line"/>
      <point x="407" y="758" type="line"/>
      <point x="325" y="758" type="line"/>
      <point x="71" y="56" type="line"/>
      <point x="1" y="42" type="line"/>
    </contour>
    <contour>
      <point x="225" y="271" type="line"/>
      <point x="354" y="656" type="line"/>
      <point x="400" y="509" type="line"/>
      <point x="479" y="271" type="line"/>
    </contour>
  </outline>
</glyph>
<glyph name="F" format="1">
  <advance width="604"/>
  <unicode hex="0046"/>
  <outline>
    <contour>
      <point x="51" y="0" type="line"/>
      <point x="370" y="0" type="line"/>
      <point x="370" y="46" type="line"/>
      <point x="229" y="56" type="line"/>
      <point x="229" y="361" type="line"/>
      <point x="444" y="357" type="line"/>
      <point x="457" y="284" type="line"/>
      <point x="511" y="284" type="line"/>
      <point x="511" y="489" type="line"/>
      <point x="463" y="489" type="line"/>
      <point x="444" y="418" type="line"/>
      <point x="229" y="414" type="line"/>
      <point x="229" y="705" type="line"/>
      <point x="516" y="698" type="line"/>
      <point x="539" y="618" type="line"/>
      <point x="587" y="619" type="line"/>
      <point x="578" y="758" type="line"/>
      <point x="54" y="758" type="line"/>
      <point x="54" y="710" type="line"/>
      <point x="134" y="702" type="line"/>
      <point x="134" y="56" type="line"/>
      <point x="51" y="42" type="line"/>
    </contour>
  </outline>
</glyph>
<glyph name="L" format="1">
  <advance width="607"/>
  <unicode hex="004C"/>
  <outline>
    <contour>
      <point x="52" y="0" type="line"/>
      <point x="561" y="0" type="line"/>
      <point x="593" y="162" type="line"/>
      <point x="550" y="183" type="line"/>
      <point x="490" y="66" type="line"/>
      <point x="229" y="55" type="line"/>
      <point x="230" y="697" type="line"/>
      <point x="316" y="705" type="line"/>
      <point x="316" y="758" type="line"/>
      <point x="54" y="758" type="line"/>
      <point x="54" y="705" type="line"/>
      <point x="134" y="697" type="line"/>
      <point x="134" y="56" type="line"/>
      <point x="52" y="42" type="line"/>
    </contour>
  </outline>
</glyph>
<glyph name="S" format="1">
  <advance width="600"/>
  <unicode hex="0053"/>
  <outline>
    <contour>
      <point x="75" y="30" type="line"/>
      <point x="103" y="13"/>
      <point x="200" y="-11"/>
      <point x="298" y="-11" type="curve" smooth="yes"/>
      <point x="432" y="-11"/>
      <point x="550" y="48"/>
      <point x="550" y="194" type="curve" smooth="yes"/>
      <point x="550" y="308"/>
      <point x="436" y="369"/>
      <point x="332" y="425" type="curve" smooth="yes"/>
      <point x="246" y="470"/>
      <point x="168" y="519"/>
      <point x="168" y="593" type="curve" smooth="yes"/>
      <point x="168" y="688"/>
      <point x="255" y="717"/>
      <point x="308" y="717" type="curve" smooth="yes"/>
      <point x="355" y="717"/>
      <point x="401" y="707"/>
      <point x="424" y="686" type="curve"/>
      <point x="462" y="592" type="line"/>
      <point x="504" y="592" type="line"/>
      <point x="504" y="728" type="line"/>
      <point x="476" y="744"/>
      <point x="410" y="765"/>
      <point x="315" y="765" type="curve" smooth="yes"/>
      <point x="217" y="765"/>
      <point x="80" y="713"/>
      <point x="80" y="577" type="curve" smooth="yes"/>
      <point x="80" y="467"/>
      <point x="182" y="406"/>
      <point x="281" y="352" type="curve" smooth="yes"/>
      <point x="373" y="300"/>
      <point x="460" y="250"/>
      <point x="460" y="167" type="curve" smooth="yes"/>
      <point x="460" y="76"/>
      <point x="383" y="38"/>
      <point x="311" y="38" type="curve" smooth="yes"/>
      <point x="253" y="38"/>
      <point x="188" y="49"/>
      <point x="149" y="90" type="curve"/>
      <point x="118" y="187" type="line"/>
      <point x="75" y="187" type="line"/>
    </contour>
  </outline>
</glyph>
<glyph name="T" format="1">
  <advance width="620"/>
  <unicode hex="0054"/>
  <outline>
    <contour>
      <point x="151" y="0" type="line"/>
      <point x="493" y="0" type="line"/>
      <point x="493" y="42" type="line"/>
      <point x="366" y="56" type="line"/>
      <point x="366" y="704" type="line"/>
      <point x="542" y="695" type="line"/>
      <point x="567" y="604" type="line"/>
      <point x="607" y="608" type="line"/>
      <point x="608" y="758" type="line"/>
      <point x="27" y="758" type="line"/>
      <point x="15" y="610" type="line"/>
      <point x="59" y="611" type="line"/>
      <point x="93" y="694" type="line"/>
      <point x="271" y="704" type="line"/>
      <point x="271" y="56" type="line"/>
      <point x="151" y="42" type="line"/>
    </contour>
  </outline>
</glyph>
<glyph name="Y" format="1">
  <advance width="660"/>
  <unicode hex="0059"/>
  <outline>
    <contour>
      <point x="196" y="0" type="line"/>
      <point x="496" y="0" type="line"/>
      <point x="496" y="42" type="line"/>
      <point x="391" y="57" type="line"/>
      <point x="391" y="311" type="line"/>
      <point x="590" y="697" type="line"/>
      <point x="654" y="710" type="line"/>
      <point x="654" y="758" type="line"/>
      <point x="429" y="758" type="line"/>
      <point x="429" y="710" type="line"/>
      <point x="512" y="701" type="line"/>
      <point x="372" y="414" type="line"/>
      <point x="350" y="363" type="line"/>
      <point x="326" y="413" type="line"/>
      <point x="171" y="702" type="line"/>
      <point x="246" y="710" type="line"/>
      <point x="246" y="758" type="line"/>
      <point x="6" y="758" type="line"/>
      <point x="6" y="710" type="line"/>
      <point x="62" y="702" type="line"/>
      <point x="296" y="312" type="line"/>
      <point x="296" y="57" type="line"/>
      <point x="196" y="42" type="line"/>
    </contour>
  </outline>
</glyph>
<glyph name="underscore" format="1">
  <advance width="691"/>
  <unicode hex="005F"/>
  <outline>
    <contour>
      <point x="-10" y="-94" type="line"/>
      <point x="-10" y="-166" type="line"/>
      <point x="701" y="-166" type="line"/>
      <point x="701" y="-94" type="line"/>
    </contour>
  </outline>
</glyph>
<glyph name="x" format="1">
  <advance width="570"/>
  <unicode hex="0078"/>
  <outline>
    <contour>
      <point x="3" y="0" type="line"/>
      <point x="243" y="0" type="line"/>
      <point x="243" y="42" type="line"/>
      <point x="154" y="52" type="line"/>
      <point x="250" y="189" type="line"/>
      <point x="271" y="226" type="line"/>
      <point x="305" y="178" type="line"/>
      <point x="309" y="170"/>
      <point x="320" y="163"/>
      <point x="394" y="52" type="curve"/>
      <point x="327" y="42" type="line"/>
      <point x="327" y="0" type="line"/>
      <point x="568" y="0" type="line"/>
      <point x="568" y="42" type="line"/>
      <point x="504" y="51" type="line"/>
      <point x="330" y="277" type="line"/>
      <point x="489" y="485" type="line"/>
      <point x="564" y="495" type="line"/>
      <point x="564" y="546" type="line"/>
      <point x="344" y="546" type="line"/>
      <point x="344" y="495" type="line"/>
      <point x="414" y="487" type="line"/>
      <point x="317" y="344" type="line"/>
      <point x="297" y="310" type="line"/>
      <point x="274" y="346" type="line"/>
      <point x="179" y="486" type="line"/>
      <point x="247" y="495" type="line"/>
      <point x="247" y="546" type="line"/>
      <point x="2" y="546" type="line"/>
      <point x="2" y="495" type="line"/>
      <point x="69" y="486" type="line"/>
      <point x="239" y="265" type="line"/>
      <point x="76" y="52" type="line"/>
      <point x="3" y="42" type="line"/>
    </contour>
  </outline>
</glyph>
<glyph name="bar" format="1">
  <advance width="426"/>
  <unicode hex="007C"/>
  <outline>
    <contour>
      <point x="175" y="-91" type="line"/>
      <point x="259" y="-91" type="line"/>
      <point x="259" y="869" type="line"/>
      <point x="175" y="869" type="line"/>
    </contour>
  </outline>
</glyph>
<glyph name="cent" format="1">
  <advance width="545"/>
  <unicode hex="00A2"/>
  <outline>
    <contour>
      <point x="246" y="-105" type="line"/>
      <point x="307" y="-105" type="line"/>
      <point x="312" y="-10" type="line"/>
      <point x="381" y="-7"/>
      <point x="451" y="12"/>
      <point x="486" y="43" type="curve"/>
      <point x="469" y="86" type="line"/>
      <point x="441" y="70"/>
      <point x="380" y="57"/>
      <point x="329" y="57" type="curve" smooth="yes"/>
      <point x="247" y="57"/>
      <point x="149" y="128"/>
      <point x="151" y="306" type="curve" smooth="yes"/>
      <point x="152" y="440"/>
      <point x="229" y="504"/>
      <point x="317" y="504" type="curve" smooth="yes"/>
      <point x="340" y="504"/>
      <point x="376" y="498"/>
      <point x="397" y="481" type="curve"/>
      <point x="422" y="419" type="line"/>
      <point x="468" y="419" type="line"/>
      <point x="468" y="537" type="line"/>
      <point x="447" y="551"/>
      <point x="401" y="560"/>
      <point x="354" y="561" type="curve"/>
      <point x="360" y="665" type="line"/>
      <point x="300" y="665" type="line"/>
      <point x="293" y="558" type="line"/>
      <point x="161" y="538"/>
      <point x="60" y="428"/>
      <point x="61" y="263" type="curve" smooth="yes"/>
      <point x="63" y="122"/>
      <point x="128" y="15"/>
      <point x="251" y="-6" type="curve"/>
    </contour>
  </outline>
</glyph>
<glyph name="yen" format="1">
  <advance width="687"/>
  <unicode hex="00A5"/>
  <outline>
    <contour>
      <point x="202" y="0" type="line"/>
      <point x="491" y="0" type="line"/>
      <point x="491" y="42" type="line"/>
      <point x="392" y="57" type="line"/>
      <point x="392" y="184" type="line"/>
      <point x="591" y="184" type="line"/>
      <point x="591" y="246" type="line"/>
      <point x="392" y="246" type="line"/>
      <point x="392" y="358" type="line"/>
      <point x="591" y="358" type="line"/>
      <point x="591" y="420" type="line"/>
      <point x="426" y="420" type="line"/>
      <point x="602" y="696" type="line"/>
      <point x="671" y="710" type="line"/>
      <point x="671" y="758" type="line"/>
      <point x="448" y="758" type="line"/>
      <point x="448" y="710" type="line"/>
      <point x="521" y="702" type="line"/>
      <point x="478" y="629"/>
      <point x="435" y="551"/>
      <point x="394" y="480" type="curve"/>
      <point x="364" y="420" type="line"/>
      <point x="351" y="420" type="line"/>
      <point x="327" y="476" type="line"/>
      <point x="188" y="702" type="line"/>
      <point x="261" y="710" type="line"/>
      <point x="261" y="758" type="line"/>
      <point x="16" y="758" type="line"/>
      <point x="16" y="710" type="line"/>
      <point x="79" y="702" type="line"/>
      <point x="265" y="420" type="line"/>
      <point x="89" y="420" type="line"/>
      <point x="89" y="358" type="line"/>
      <point x="296" y="358" type="line"/>
      <point x="296" y="246" type="line"/>
      <point x="89" y="246" type="line"/>
      <point x="89" y="184" type="line"/>
      <point x="296" y="184" type="line"/>
      <point x="296" y="56" type="line"/>
      <point x="202" y="42" type="line"/>
    </contour>
  </outline>
</glyph>
<glyph name="brokenbar" format="1">
  <advance width="426"/>
  <unicode hex="00A6"/>
  <outline>
    <contour>
      <point x="175" y="433" type="line"/>
      <point x="259" y="433" type="line"/>
      <point x="259" y="869" type="line"/>
      <point x="175" y="869" type="line"/>
    </contour>
    <contour>
      <point x="175" y="-91" type="line"/>
      <point x="259" y="-91" type="line"/>
      <point x="259" y="346" type="line"/>
      <point x="175" y="346" type="line"/>
    </contour>
  </outline>
</glyph>
<glyph name="guillemotleft" format="1">
  <advance width="926"/>
  <unicode hex="00AB"/>
  <outline>
    <contour>
      <point x="465" y="258" type="line"/>
      <point x="782" y="80" type="line"/>
      <point x="807" y="124" type="line"/>
      <point x="556" y="300" type="line"/>
      <point x="807" y="483" type="line"/>
      <point x="782" y="525" type="line"/>
      <point x="465" y="338" type="line"/>
    </contour>
    <contour>
      <point x="120" y="258" type="line"/>
      <point x="436" y="80" type="line"/>
      <point x="461" y="124" type="line"/>
      <point x="210" y="300" type="line"/>
      <point x="461" y="483" type="line"/>
      <point x="436" y="525" type="line"/>
      <point x="120" y="338" type="line"/>
    </contour>
  </outline>
</glyph>
<glyph name="threesuperior" format="1">
  <advance width="559"/>
  <unicode hex="00B3"/>
  <outline>
    <contour>
      <point x="110" y="329" type="line"/>
      <point x="158" y="307"/>
      <point x="220" y="296"/>
      <point x="259" y="296" type="curve" smooth="yes"/>
      <point x="402" y="296"/>
      <point x="485" y="367"/>
      <point x="485" y="458" type="curve" smooth="yes"/>
      <point x="485" y="503"/>
      <point x="453" y="593"/>
      <point x="336" y="587" type="curve"/>
      <point x="411" y="615"/>
      <point x="447" y="658"/>
      <point x="447" y="717" type="curve" smooth="yes"/>
      <point x="447" y="787"/>
      <point x="378" y="850"/>
      <point x="259" y="836" type="curve" smooth="yes"/>
      <point x="194" y="830"/>
      <point x="122" y="797"/>
      <point x="92" y="774" type="curve"/>
      <point x="116" y="730" type="line"/>
      <point x="149" y="754"/>
      <point x="209" y="773"/>
      <point x="259" y="775" type="curve" smooth="yes"/>
      <point x="296" y="777"/>
      <point x="348" y="759"/>
      <point x="349" y="720" type="curve" smooth="yes"/>
      <point x="350" y="708"/>
      <point x="349" y="695"/>
      <point x="345" y="684" type="curve" smooth="yes"/>
      <point x="327" y="640"/>
      <point x="294" y="607"/>
      <point x="188" y="586" type="curve"/>
      <point x="188" y="527" type="line"/>
      <point x="284" y="547" type="line"/>
      <point x="343" y="545"/>
      <point x="389" y="519"/>
      <point x="389" y="462" type="curve" smooth="yes"/>
      <point x="389" y="404"/>
      <point x="343" y="359"/>
      <point x="247" y="357" type="curve" smooth="yes"/>
      <point x="206" y="357"/>
      <point x="148" y="368"/>
      <point x="110" y="383" type="curve"/>
    </contour>
  </outline>
</glyph>
<glyph name="Acircumflex" format="1">
  <advance width="729"/>
  <unicode hex="00C2"/>
  <outline>
    <contour>
      <point x="234" y="789" type="line"/>
      <point x="366" y="871" type="line"/>
      <point x="495" y="789" type="line"/>
      <point x="537" y="813" type="line"/>
      <point x="412" y="938" type="line"/>
      <point x="319" y="938" type="line"/>
      <point x="196" y="812" type="line"/>
    </contour>
    <contour>
      <point x="1" y="0" type="line"/>
      <point x="234" y="0" type="line"/>
      <point x="234" y="42" type="line"/>
      <point x="153" y="56" type="line"/>
      <point x="206" y="213" type="line"/>
      <point x="499" y="213" type="line"/>
      <point x="551" y="56" type="line"/>
      <point x="470" y="42" type="line"/>
      <point x="470" y="0" type="line"/>
      <point x="728" y="0" type="line"/>
      <point x="728" y="42" type="line"/>
      <point x="650" y="56" type="line"/>
      <point x="407" y="758" type="line"/>
      <point x="325" y="758" type="line"/>
      <point x="71" y="56" type="line"/>
      <point x="1" y="42" type="line"/>
    </contour>
    <contour>
      <point x="225" y="271" type="line"/>
      <point x="354" y="656" type="line"/>
      <point x="400" y="509" type="line"/>
      <point x="479" y="271" type="line"/>
    </contour>
  </outline>
</glyph>
<glyph name="Atilde" format="1">
  <advance width="729"/>
  <unicode hex="00C3"/>
  <outline>
    <contour>
      <point x="197" y="819" type="line"/>
      <point x="216" y="838"/>
      <point x="253" y="860"/>
      <point x="287" y="860" type="curve" smooth="yes"/>
      <point x="335" y="860"/>
      <point x="350" y="796"/>
      <point x="414" y="796" type="curve" smooth="yes"/>
      <point x="466" y="796"/>
      <point x="525" y="834"/>
      <point x="549" y="880" type="curve"/>
      <point x="524" y="916" type="line"/>
      <point x="503" y="895"/>
      <point x="471" y="876"/>
      <point x="434" y="876" type="curve" smooth="yes"/>
      <point x="386" y="876"/>
      <point x="370" y="938"/>
      <point x="307" y="938" type="curve" smooth="yes"/>
      <point x="255" y="938"/>
      <point x="196" y="900"/>
      <point x="171" y="854" type="curve"/>
    </contour>
    <contour>
      <point x="1" y="0" type="line"/>
      <point x="234" y="0" type="line"/>
      <point x="234" y="42" type="line"/>
      <point x="153" y="56" type="line"/>
      <point x="206" y="213" type="line"/>
      <point x="499" y="213" type="line"/>
      <point x="551" y="56" type="line"/>
      <point x="470" y="42" type="line"/>
      <point x="470" y="0" type="line"/>
      <point x="728" y="0" type="line"/>
      <point x="728" y="42" type="line"/>
      <point x="650" y="56" type="line"/>
      <point x="407" y="758" type="line"/>
      <point x="325" y="758" type="line"/>
      <point x="71" y="56" type="line"/>
      <point x="1" y="42" type="line"/>
    </contour>
    <contour>
      <point x="225" y="271" type="line"/>
      <point x="354" y="656" type="line"/>
      <point x="400" y="509" type="line"/>
      <point x="479" y="271" type="line"/>
    </contour>
  </outline>
</glyph>
<glyph name="Ograve" format="1">
  <advance width="759"/>
  <unicode hex="00D2"/>
  <outline>
    <contour>
      <point x="417" y="811" type="line"/>
      <point x="268" y="938" type="line"/>
      <point x="196" y="865" type="line"/>
      <point x="257" y="826"/>
      <point x="330" y="795"/>
      <point x="391" y="785" type="curve"/>
    </contour>
    <contour>
      <point x="44" y="367" type="curve" smooth="yes"/>
      <point x="40" y="146"/>
      <point x="172" y="-18"/>
      <point x="378" y="-14" type="curve" smooth="yes"/>
      <point x="564" y="-10"/>
      <point x="712" y="136"/>
      <point x="718" y="385" type="curve" smooth="yes"/>
      <point x="722" y="606"/>
      <point x="596" y="771"/>
      <point x="393" y="765" type="curve" smooth="yes"/>
      <point x="204" y="760"/>
      <point x="49" y="616"/>
    </contour>
    <contour>
      <point x="386" y="38" type="curve" smooth="yes"/>
      <point x="236" y="38"/>
      <point x="149" y="198"/>
      <point x="149" y="368" type="curve" smooth="yes"/>
      <point x="149" y="585"/>
      <point x="241" y="713"/>
      <point x="384" y="713" type="curve" smooth="yes"/>
      <point x="533" y="713"/>
      <point x="612" y="554"/>
      <point x="612" y="384" type="curve" smooth="yes"/>
      <point x="612" y="167"/>
      <point x="529" y="38"/>
    </contour>
  </outline>
</glyph>
<glyph name="Oacute" format="1">
  <advance width="759"/>
  <unicode hex="00D3"/>
  <outline>
    <contour>
      <point x="381" y="785" type="line"/>
      <point x="442" y="795"/>
      <point x="515" y="826"/>
      <point x="576" y="865" type="curve"/>
      <point x="505" y="938" type="line"/>
      <point x="355" y="811" type="line"/>
    </contour>
    <contour>
      <point x="44" y="367" type="curve" smooth="yes"/>
      <point x="40" y="146"/>
      <point x="172" y="-18"/>
      <point x="378" y="-14" type="curve" smooth="yes"/>
      <point x="564" y="-10"/>
      <point x="712" y="136"/>
      <point x="718" y="385" type="curve" smooth="yes"/>
      <point x="722" y="606"/>
      <point x="596" y="771"/>
      <point x="393" y="765" type="curve" smooth="yes"/>
      <point x="204" y="760"/>
      <point x="49" y="616"/>
    </contour>
    <contour>
      <point x="386" y="38" type="curve" smooth="yes"/>
      <point x="236" y="38"/>
      <point x="149" y="198"/>
      <point x="149" y="368" type="curve" smooth="yes"/>
      <point x="149" y="585"/>
      <point x="241" y="713"/>
      <point x="384" y="713" type="curve" smooth="yes"/>
      <point x="533" y="713"/>
      <point x="612" y="554"/>
      <point x="612" y="384" type="curve" smooth="yes"/>
      <point x="612" y="167"/>
      <point x="529" y="38"/>
    </contour>
  </outline>
</glyph>
<glyph name="otilde" format="1">
  <advance width="601"/>
  <unicode hex="00F5"/>
  <outline>
    <contour>
      <point x="140" y="692" type="line"/>
      <point x="160" y="712"/>
      <point x="192" y="738"/>
      <point x="230" y="738" type="curve" smooth="yes"/>
      <point x="278" y="738"/>
      <point x="293" y="672"/>
      <point x="357" y="672" type="curve" smooth="yes"/>
      <point x="409" y="672"/>
      <point x="467" y="712"/>
      <point x="492" y="758" type="curve"/>
      <point x="467" y="793" type="line"/>
      <point x="446" y="773"/>
      <point x="414" y="747"/>
      <point x="376" y="747" type="curve" smooth="yes"/>
      <point x="329" y="747"/>
      <point x="313" y="813"/>
      <point x="250" y="813" type="curve" smooth="yes"/>
      <point x="198" y="813"/>
      <point x="139" y="772"/>
      <point x="114" y="728" type="curve"/>
    </contour>
    <contour>
      <point x="50" y="284" type="curve" smooth="yes"/>
      <point x="48" y="129"/>
      <point x="119" y="-12"/>
      <point x="298" y="-12" type="curve" smooth="yes"/>
      <point x="438" y="-12"/>
      <point x="551" y="106"/>
      <point x="553" y="280" type="curve" smooth="yes"/>
      <point x="554" y="438"/>
      <point x="476" y="564"/>
      <point x="310" y="563" type="curve" smooth="yes"/>
      <point x="175" y="561"/>
      <point x="53" y="458"/>
    </contour>
    <contour>
      <point x="302" y="43" type="curve" smooth="yes"/>
      <point x="199" y="45"/>
      <point x="150" y="162"/>
      <point x="150" y="289" type="curve" smooth="yes"/>
      <point x="150" y="429"/>
      <point x="194" y="513"/>
      <point x="304" y="511" type="curve" smooth="yes"/>
      <point x="408" y="509"/>
      <point x="453" y="407"/>
      <point x="453" y="275" type="curve" smooth="yes"/>
      <point x="453" y="125"/>
      <point x="413" y="41"/>
    </contour>
  </outline>
</glyph>
<glyph name="eogonek" format="1">
  <advance width="559"/>
  <unicode hex="0119"/>
  <outline>
    <contour>
      <point x="49" y="271" type="curve" smooth="yes"/>
      <point x="49" y="100"/>
      <point x="137" y="-12"/>
      <point x="294" y="-12" type="curve" smooth="yes"/>
      <point x="317" y="-12"/>
      <point x="341" y="-10"/>
      <point x="365" y="-6" type="curve"/>
      <point x="304" y="-45"/>
      <point x="270" y="-104"/>
      <point x="270" y="-148" type="curve" smooth="yes"/>
      <point x="270" y="-265"/>
      <point x="430" y="-269"/>
      <point x="497" y="-218" type="curve"/>
      <point x="497" y="-175" type="line"/>
      <point x="442" y="-197"/>
      <point x="358" y="-196"/>
      <point x="358" y="-120" type="curve" smooth="yes"/>
      <point x="358" y="-83"/>
      <point x="388" y="-38"/>
      <point x="484" y="35" type="curve"/>
      <point x="486" y="36"/>
      <point x="488" y="38"/>
      <point x="489" y="39" type="curve"/>
      <point x="494" y="42" type="line"/>
      <point x="493" y="42" type="line"/>
      <point x="494" y="43" type="line"/>
      <point x="476" y="84" type="line"/>
      <point x="448" y="68"/>
      <point x="382" y="55"/>
      <point x="332" y="55" type="curve" smooth="yes"/>
      <point x="248" y="55"/>
      <point x="148" y="97"/>
      <point x="143" y="255" type="curve"/>
      <point x="142" y="259"/>
      <point x="142" y="262"/>
      <point x="142" y="266" type="curve"/>
      <point x="504" y="266" type="line"/>
      <point x="507" y="290"/>
      <point x="511" y="318"/>
      <point x="510" y="359" type="curve" smooth="yes"/>
      <point x="504" y="488"/>
      <point x="434" y="565"/>
      <point x="319" y="563" type="curve" smooth="yes"/>
      <point x="159" y="559"/>
      <point x="49" y="438"/>
    </contour>
    <contour>
      <point x="143" y="324" type="line"/>
      <point x="153" y="458"/>
      <point x="220" y="510"/>
      <point x="293" y="510" type="curve" smooth="yes"/>
      <point x="321" y="510"/>
      <point x="342" y="505"/>
      <point x="359" y="494" type="curve" smooth="yes"/>
      <point x="409" y="462"/>
      <point x="414" y="390"/>
      <point x="410" y="324" type="curve"/>
    </contour>
  </outline>
</glyph>
<glyph name="dotlessi" format="1">
  <advance width="333"/>
  <unicode hex="0131"/>
  <outline>
    <contour>
      <point x="55" y="0" type="line"/>
      <point x="307" y="0" type="line"/>
      <point x="307" y="42" type="line"/>
      <point x="228" y="52" type="line"/>
      <point x="228" y="546" type="line"/>
      <point x="206" y="556" type="line"/>
      <point x="70" y="518" type="line"/>
      <point x="70" y="487" type="line"/>
      <point x="138" y="452" type="line"/>
      <point x="138" y="52" type="line"/>
      <point x="55" y="42" type="line"/>
    </contour>
  </outline>
</glyph>
<glyph name="jcircumflex" format="1">
  <advance width="317"/>
  <unicode hex="0135"/>
  <outline>
    <contour>
      <point x="37" y="652" type="line"/>
      <point x="180" y="783" type="line"/>
      <point x="313" y="652" type="line"/>
      <point x="354" y="675" type="line"/>
      <point x="226" y="867" type="line"/>
      <point x="134" y="867" type="line"/>
      <point x="0" y="674" type="line"/>
    </contour>
    <contour>
      <point x="134" y="-1" type="line" smooth="yes"/>
      <point x="134" y="-138"/>
      <point x="112" y="-182"/>
      <point x="49" y="-182" type="curve" smooth="yes"/>
      <point x="38" y="-182"/>
      <point x="6" y="-181"/>
      <point x="-4" y="-177" type="curve"/>
      <point x="-4" y="-244" type="line"/>
      <point x="1" y="-249"/>
      <point x="35" y="-251"/>
      <point x="49" y="-251" type="curve" smooth="yes"/>
      <point x="157" y="-251"/>
      <point x="226" y="-160"/>
      <point x="226" y="-8" type="curve" smooth="yes"/>
      <point x="226" y="546" type="line"/>
      <point x="204" y="556" type="line"/>
      <point x="66" y="517" type="line"/>
      <point x="66" y="488" type="line"/>
      <point x="134" y="452" type="line"/>
    </contour>
  </outline>
</glyph>
<glyph name="Lslash" format="1">
  <advance width="607"/>
  <unicode hex="0141"/>
  <outline>
    <contour>
      <point x="52" y="0" type="line"/>
      <point x="561" y="0" type="line"/>
      <point x="593" y="162" type="line"/>
      <point x="550" y="183" type="line"/>
      <point x="490" y="66" type="line"/>
      <point x="229" y="55" type="line"/>
      <point x="229" y="311" type="line"/>
      <point x="496" y="413" type="line"/>
      <point x="496" y="491" type="line"/>
      <point x="409" y="457" type="line" smooth="yes"/>
      <point x="358" y="437"/>
      <point x="292" y="410"/>
      <point x="229" y="385" type="curve"/>
      <point x="230" y="697" type="line"/>
      <point x="316" y="705" type="line"/>
      <point x="316" y="758" type="line"/>
      <point x="54" y="758" type="line"/>
      <point x="54" y="705" type="line"/>
      <point x="134" y="697" type="line"/>
      <point x="134" y="348" type="line"/>
      <point x="83" y="327"/>
      <point x="47" y="313"/>
      <point x="47" y="313" type="curve" smooth="yes"/>
      <point x="47" y="277" type="line" smooth="yes"/>
      <point x="47" y="267"/>
      <point x="47" y="255"/>
      <point x="47" y="242" type="curve"/>
      <point x="134" y="275" type="line"/>
      <point x="134" y="56" type="line"/>
      <point x="52" y="42" type="line"/>
    </contour>
  </outline>
</glyph>
<glyph name="nacute" format="1">
  <advance width="682"/>
  <unicode hex="0144"/>
  <outline>
    <contour>
      <point x="322" y="654" type="line"/>
      <point x="375" y="679"/>
      <point x="472" y="736"/>
      <point x="511" y="796" type="curve"/>
      <point x="440" y="869" type="line"/>
      <point x="296" y="681" type="line"/>
    </contour>
    <contour>
      <point x="67" y="0" type="line"/>
      <point x="301" y="0" type="line"/>
      <point x="301" y="42" type="line"/>
      <point x="229" y="52" type="line"/>
      <point x="229" y="434" type="line"/>
      <point x="278" y="468"/>
      <point x="323" y="483"/>
      <point x="363" y="485" type="curve" smooth="yes"/>
      <point x="462" y="489"/>
      <point x="481" y="430"/>
      <point x="481" y="310" type="curve" smooth="yes"/>
      <point x="481" y="52" type="line"/>
      <point x="407" y="42" type="line"/>
      <point x="407" y="0" type="line"/>
      <point x="653" y="0" type="line"/>
      <point x="653" y="42" type="line"/>
      <point x="575" y="51" type="line"/>
      <point x="575" y="327" type="line" smooth="yes"/>
      <point x="575" y="491"/>
      <point x="534" y="560"/>
      <point x="413" y="556" type="curve" smooth="yes"/>
      <point x="346" y="554"/>
      <point x="261" y="515"/>
      <point x="216" y="477" type="curve"/>
      <point x="216" y="546" type="line"/>
      <point x="194" y="556" type="line"/>
      <point x="64" y="518" type="line"/>
      <point x="64" y="487" type="line"/>
      <point x="134" y="449" type="line"/>
      <point x="134" y="51" type="line"/>
      <point x="67" y="42" type="line"/>
    </contour>
  </outline>
</glyph>
<glyph name="Ydieresis" format="1">
  <advance width="660"/>
  <unicode hex="0178"/>
  <outline>
    <contour>
      <point x="454" y="806" type="curve" smooth="yes"/>
      <point x="490" y="806"/>
      <point x="527" y="834"/>
      <point x="527" y="877" type="curve" smooth="yes"/>
      <point x="527" y="910"/>
      <point x="508" y="938"/>
      <point x="465" y="938" type="curve" smooth="yes"/>
      <point x="430" y="938"/>
      <point x="392" y="907"/>
      <point x="392" y="866" type="curve" smooth="yes"/>
      <point x="392" y="829"/>
      <point x="422" y="806"/>
    </contour>
    <contour>
      <point x="226" y="806" type="curve" smooth="yes"/>
      <point x="263" y="806"/>
      <point x="299" y="834"/>
      <point x="299" y="877" type="curve" smooth="yes"/>
      <point x="299" y="910"/>
      <point x="280" y="938"/>
      <point x="237" y="938" type="curve" smooth="yes"/>
      <point x="203" y="938"/>
      <point x="165" y="907"/>
      <point x="165" y="866" type="curve" smooth="yes"/>
      <point x="165" y="829"/>
      <point x="194" y="806"/>
    </contour>
    <contour>
      <point x="196" y="0" type="line"/>
      <point x="496" y="0" type="line"/>
      <point x="496" y="42" type="line"/>
      <point x="391" y="57" type="line"/>
      <point x="391" y="311" type="line"/>
      <point x="590" y="697" type="line"/>
      <point x="654" y="710" type="line"/>
      <point x="654" y="758" type="line"/>
      <point x="429" y="758" type="line"/>
      <point x="429" y="710" type="line"/>
      <point x="512" y="701" type="line"/>
      <point x="372" y="414" type="line"/>
      <point x="350" y="363" type="line"/>
      <point x="326" y="413" type="line"/>
      <point x="171" y="702" type="line"/>
      <point x="246" y="710" type="line"/>
      <point x="246" y="758" type="line"/>
      <point x="6" y="758" type="line"/>
      <point x="6" y="710" type="line"/>
      <point x="62" y="702" type="line"/>
      <point x="296" y="312" type="line"/>
      <point x="296" y="57" type="line"/>
      <point x="196" y="42" type="line"/>
    </contour>
  </outline>
</glyph>
<glyph name="Zacute" format="1">
  <advance width="660"/>
  <unicode hex="0179"/>
  <outline>
    <contour>
      <point x="355" y="785" type="line"/>
      <point x="416" y="795"/>
      <point x="489" y="826"/>
      <point x="550" y="865" type="curve"/>
      <point x="479" y="938" type="line"/>
      <point x="330" y="811" type="line"/>
    </contour>
    <contour>
      <point x="58" y="0" type="line"/>
      <point x="600" y="0" type="line"/>
      <point x="635" y="186" type="line"/>
      <point x="586" y="197" type="line"/>
      <point x="523" y="73" type="line"/>
      <point x="157" y="54" type="line"/>
      <point x="205" y="113" type="line"/>
      <point x="626" y="716" type="line"/>
      <point x="612" y="758" type="line"/>
      <point x="88" y="758" type="line"/>
      <point x="73" y="592" type="line"/>
      <point x="125" y="583" type="line"/>
      <point x="171" y="694" type="line"/>
      <point x="519" y="705" type="line"/>
      <point x="469" y="646" type="line"/>
      <point x="45" y="43" type="line"/>
    </contour>
  </outline>
</glyph>
<glyph name="Zdotaccent" format="1">
  <advance width="660"/>
  <unicode hex="017B"/>
  <outline>
    <contour>
      <point x="353" y="806" type="curve" smooth="yes"/>
      <point x="389" y="806"/>
      <point x="426" y="834"/>
      <point x="426" y="877" type="curve" smooth="yes"/>
      <point x="426" y="910"/>
      <point x="407" y="938"/>
      <point x="364" y="938" type="curve" smooth="yes"/>
      <point x="329" y="938"/>
      <point x="291" y="907"/>
      <point x="291" y="866" type="curve" smooth="yes"/>
      <point x="291" y="829"/>
      <point x="321" y="806"/>
    </contour>
    <contour>
      <point x="58" y="0" type="line"/>
      <point x="600" y="0" type="line"/>
      <point x="635" y="186" type="line"/>
      <point x="586" y="197" type="line"/>
      <point x="523" y="73" type="line"/>
      <point x="157" y="54" type="line"/>
      <point x="205" y="113" type="line"/>
      <point x="626" y="716" type="line"/>
      <point x="612" y="758" type="line"/>
      <point x="88" y="758" type="line"/>
      <point x="73" y="592" type="line"/>
      <point x="125" y="583" type="line"/>
      <point x="171" y="694" type="line"/>
      <point x="519" y="705" type="line"/>
      <point x="469" y="646" type="line"/>
      <point x="45" y="43" type="line"/>
    </contour>
  </outline>
</glyph>
<glyph name="Zcaron" format="1">
  <advance width="660"/>
  <unicode hex="017D"/>
  <outline>
    <contour>
      <point x="315" y="789" type="line"/>
      <point x="408" y="789" type="line"/>
      <point x="521" y="915" type="line"/>
      <point x="483" y="938" type="line"/>
      <point x="361" y="855" type="line"/>
      <point x="242" y="938" type="line"/>
      <point x="200" y="914" type="line"/>
    </contour>
    <contour>
      <point x="58" y="0" type="line"/>
      <point x="600" y="0" type="line"/>
      <point x="635" y="186" type="line"/>
      <point x="586" y="197" type="line"/>
      <point x="523" y="73" type="line"/>
      <point x="157" y="54" type="line"/>
      <point x="205" y="113" type="line"/>
      <point x="626" y="716" type="line"/>
      <point x="612" y="758" type="line"/>
      <point x="88" y="758" type="line"/>
      <point x="73" y="592" type="line"/>
      <point x="125" y="583" type="line"/>
      <point x="171" y="694" type="line"/>
      <point x="519" y="705" type="line"/>
      <point x="469" y="646" type="line"/>
      <point x="45" y="43" type="line"/>
    </contour>
  </outline>
</glyph>
<glyph name="circumflex" format="1">
  <advance width="519"/>
  <unicode hex="02C6"/>
  <outline>
    <contour>
      <point x="117" y="652" type="line"/>
      <point x="259" y="783" type="line"/>
      <point x="392" y="652" type="line"/>
      <point x="434" y="675" type="line"/>
      <point x="306" y="867" type="line"/>
      <point x="213" y="867" type="line"/>
      <point x="80" y="674" type="line"/>
    </contour>
  </outline>
</glyph>
<glyph name="caron" format="1">
  <advance width="519"/>
  <unicode hex="02C7"/>
  <outline>
    <contour>
      <point x="213" y="652" type="line"/>
      <point x="305" y="652" type="line"/>
      <point x="434" y="844" type="line"/>
      <point x="397" y="867" type="line"/>
      <point x="259" y="736" type="line"/>
      <point x="122" y="866" type="line"/>
      <point x="80" y="844" type="line"/>
    </contour>
  </outline>
</glyph>
<glyph name="uni0326" format="1">
  <advance width="345"/>
  <unicode hex="0326"/>
  <outline>
    <contour>
      <point x="134" y="-71" type="line"/>
      <point x="134" y="-97" type="line"/>
      <point x="152" y="-97"/>
      <point x="184" y="-126"/>
      <point x="184" y="-164" type="curve" smooth="yes"/>
      <point x="184" y="-207"/>
      <point x="172" y="-258"/>
      <point x="135" y="-275" type="curve"/>
      <point x="135" y="-288" type="line"/>
      <point x="162" y="-313" type="line"/>
      <point x="206" y="-301"/>
      <point x="284" y="-233"/>
      <point x="284" y="-144" type="curve" smooth="yes"/>
      <point x="284" y="-96"/>
      <point x="252" y="-38"/>
      <point x="184" y="-20" type="curve"/>
    </contour>
  </outline>
</glyph>
<glyph name="eshortdeva" format="1">
  <advance width="588"/>
  <unicode hex="090E"/>
  <outline>
    <contour>
      <point x="399" y="325" type="line" smooth="yes"/>
      <point x="399" y="281"/>
      <point x="362" y="263"/>
      <point x="319" y="244" type="curve"/>
      <point x="319" y="233" type="line"/>
      <point x="384" y="189" type="line"/>
      <point x="427" y="204"/>
      <point x="487" y="242"/>
      <point x="487" y="342" type="curve" smooth="yes"/>
      <point x="487" y="575" type="line"/>
      <point x="588" y="575" type="line"/>
      <point x="588" y="590" type="line"/>
      <point x="556" y="650" type="line"/>
      <point x="468" y="650" type="line"/>
      <point x="472" y="664"/>
      <point x="477" y="684"/>
      <point x="477" y="703" type="curve" smooth="yes"/>
      <point x="477" y="737"/>
      <point x="455" y="774"/>
      <point x="427" y="806" type="curve" smooth="yes"/>
      <point x="396" y="844"/>
      <point x="351" y="875"/>
      <point x="297" y="875" type="curve" smooth="yes"/>
      <point x="252" y="875"/>
      <point x="74" y="859"/>
      <point x="33" y="859" type="curve" smooth="yes"/>
      <point x="-15" y="859"/>
      <point x="-49" y="874"/>
      <point x="-49" y="910" type="curve" smooth="yes"/>
      <point x="-49" y="931"/>
      <point x="-41" y="958"/>
      <point x="-31" y="984" type="curve"/>
      <point x="-81" y="991" type="line"/>
      <point x="-88" y="971"/>
      <point x="-104" y="931"/>
      <point x="-104" y="893" type="curve" smooth="yes"/>
      <point x="-104" y="841"/>
      <point x="6" y="772"/>
      <point x="120" y="772" type="curve" smooth="yes"/>
      <point x="174" y="772"/>
      <point x="268" y="787"/>
      <point x="314" y="787" type="curve" smooth="yes"/>
      <point x="400" y="787"/>
      <point x="424" y="733"/>
      <point x="424" y="684" type="curve" smooth="yes"/>
      <point x="424" y="671"/>
      <point x="421" y="660"/>
      <point x="416" y="650" type="curve"/>
      <point x="-31" y="650" type="line"/>
      <point x="-31" y="634" type="line"/>
      <point x="0" y="575" type="line"/>
      <point x="91" y="575" type="line"/>
      <point x="91" y="279" type="line" smooth="yes"/>
      <point x="91" y="232"/>
      <point x="103" y="211"/>
      <point x="199" y="147" type="curve" smooth="yes"/>
      <point x="559" y="-95" type="line"/>
      <point x="505" y="-154" type="line"/>
      <point x="505" y="-156" type="line"/>
      <point x="514" y="-176"/>
      <point x="536" y="-202"/>
      <point x="573" y="-202" type="curve" smooth="yes"/>
      <point x="613" y="-202"/>
      <point x="647" y="-180"/>
      <point x="647" y="-136" type="curve" smooth="yes"/>
      <point x="647" y="-101"/>
      <point x="625" y="-73"/>
      <point x="529" y="-10" type="curve" smooth="yes"/>
      <point x="224" y="197" type="line" smooth="yes"/>
      <point x="186" y="223"/>
      <point x="180" y="240"/>
      <point x="180" y="268" type="curve" smooth="yes"/>
      <point x="180" y="575" type="line"/>
      <point x="399" y="575" type="line"/>
    </contour>
  </outline>
</glyph>
<glyph name="audeva" format="1">
  <advance width="1150"/>
  <unicode hex="0914"/>
  <outline>
    <contour>
      <point x="953" y="-1" type="line"/>
      <point x="1025" y="-42" type="line"/>
      <point x="1040" y="-42" type="line"/>
      <point x="1040" y="575" type="line"/>
      <point x="1150" y="575" type="line"/>
      <point x="1150" y="590" type="line"/>
      <point x="1118" y="650" type="line"/>
      <point x="1024" y="650" type="line"/>
      <point x="1008" y="698"/>
      <point x="978" y="765"/>
      <point x="962" y="801" type="curve" smooth="yes"/>
      <point x="908" y="928"/>
      <point x="837" y="1045"/>
      <point x="721" y="1045" type="curve" smooth="yes"/>
      <point x="677" y="1045"/>
      <point x="650" y="1023"/>
      <point x="650" y="983" type="curve" smooth="yes"/>
      <point x="650" y="956"/>
      <point x="667" y="927"/>
      <point x="685" y="913" type="curve"/>
      <point x="687" y="913" type="line"/>
      <point x="822" y="950" type="line"/>
      <point x="846" y="927"/>
      <point x="900" y="840"/>
      <point x="945" y="749" type="curve" smooth="yes"/>
      <point x="954" y="732"/>
      <point x="974" y="684"/>
      <point x="989" y="650" type="curve"/>
      <point x="957" y="650" type="line"/>
      <point x="887" y="760"/>
      <point x="802" y="869"/>
      <point x="703" y="869" type="curve" smooth="yes"/>
      <point x="664" y="869"/>
      <point x="635" y="846"/>
      <point x="635" y="811" type="curve" smooth="yes"/>
      <point x="635" y="793"/>
      <point x="648" y="769"/>
      <point x="667" y="754" type="curve"/>
      <point x="669" y="754" type="line"/>
      <point x="812" y="772" type="line"/>
      <point x="826" y="765"/>
      <point x="888" y="691"/>
      <point x="920" y="650" type="curve"/>
      <point x="467" y="650" type="line"/>
      <point x="467" y="634" type="line"/>
      <point x="499" y="575" type="line"/>
      <point x="645" y="575" type="line"/>
      <point x="645" y="327" type="line"/>
      <point x="618" y="310"/>
      <point x="589" y="296"/>
      <point x="545" y="296" type="curve" smooth="yes"/>
      <point x="492" y="296"/>
      <point x="432" y="320"/>
      <point x="397" y="339" type="curve"/>
      <point x="429" y="368"/>
      <point x="451" y="419"/>
      <point x="451" y="461" type="curve" smooth="yes"/>
      <point x="451" y="557"/>
      <point x="336" y="665"/>
      <point x="256" y="667" type="curve" smooth="yes"/>
      <point x="219" y="667"/>
      <point x="133" y="630"/>
      <point x="96" y="603" type="curve"/>
      <point x="142" y="516" type="line"/>
      <point x="183" y="553"/>
      <point x="234" y="586"/>
      <point x="290" y="586" type="curve" smooth="yes"/>
      <point x="342" y="586"/>
      <point x="388" y="544"/>
      <point x="388" y="497" type="curve" smooth="yes"/>
      <point x="388" y="450"/>
      <point x="360" y="425"/>
      <point x="328" y="407" type="curve" smooth="yes"/>
      <point x="292" y="388"/>
      <point x="233" y="382"/>
      <point x="197" y="380" type="curve"/>
      <point x="186" y="353" type="line"/>
      <point x="221" y="289" type="line"/>
      <point x="252" y="293"/>
      <point x="315" y="303"/>
      <point x="355" y="316" type="curve"/>
      <point x="386" y="290"/>
      <point x="399" y="247"/>
      <point x="399" y="210" type="curve" smooth="yes"/>
      <point x="399" y="150"/>
      <point x="350" y="98"/>
      <point x="280" y="98" type="curve" smooth="yes"/>
      <point x="186" y="98"/>
      <point x="93" y="199"/>
      <point x="42" y="284" type="curve"/>
      <point x="8" y="262" type="line"/>
      <point x="57" y="173"/>
      <point x="153" y="18"/>
      <point x="317" y="18" type="curve" smooth="yes"/>
      <point x="414" y="18"/>
      <point x="478" y="77"/>
      <point x="478" y="173" type="curve" smooth="yes"/>
      <point x="478" y="209"/>
      <point x="469" y="240"/>
      <point x="455" y="267" type="curve"/>
      <point x="460" y="270" type="line"/>
      <point x="498" y="240"/>
      <point x="537" y="220"/>
      <point x="585" y="220" type="curve" smooth="yes"/>
      <point x="609" y="220"/>
      <point x="630" y="225"/>
      <point x="643" y="232" type="curve"/>
      <point x="645" y="232" type="line"/>
      <point x="645" y="-1" type="line"/>
      <point x="717" y="-42" type="line"/>
      <point x="733" y="-42" type="line"/>
      <point x="733" y="575" type="line"/>
      <point x="953" y="575" type="line"/>
    </contour>
    <contour>
      <point x="1024" y="650" type="move" name="top"/>
    </contour>
  </outline>
</glyph>
<glyph name="cadeva" format="1">
  <advance width="666"/>
  <unicode hex="091A"/>
  <outline>
    <contour>
      <point x="-31" y="650" type="line"/>
      <point x="-31" y="634" type="line"/>
      <point x="0" y="575" type="line"/>
      <point x="468" y="575" type="line"/>
      <point x="468" y="185" type="line"/>
      <point x="409" y="185" type="line"/>
      <point x="469" y="145" type="line"/>
      <point x="466" y="0" type="line"/>
      <point x="540" y="-42" type="line"/>
      <point x="556" y="-42" type="line"/>
      <point x="556" y="575" type="line"/>
      <point x="666" y="575" type="line"/>
      <point x="666" y="590" type="line"/>
      <point x="634" y="650" type="line"/>
    </contour>
    <contour>
      <point x="167" y="400" type="line"/>
      <point x="167" y="361" type="line"/>
      <point x="146" y="335"/>
      <point x="127" y="300"/>
      <point x="127" y="257" type="curve" smooth="yes"/>
      <point x="127" y="208"/>
      <point x="160" y="164"/>
      <point x="186" y="138" type="curve" smooth="yes"/>
      <point x="214" y="110"/>
      <point x="258" y="91"/>
      <point x="309" y="91" type="curve" smooth="yes"/>
      <point x="368" y="91"/>
      <point x="434" y="120"/>
      <point x="479" y="157" type="curve"/>
      <point x="478" y="280" type="line"/>
      <point x="444" y="222"/>
      <point x="340" y="143"/>
      <point x="277" y="143" type="curve" smooth="yes"/>
      <point x="234" y="143"/>
      <point x="194" y="188"/>
      <point x="194" y="232" type="curve" smooth="yes"/>
      <point x="194" y="297"/>
      <point x="238" y="357"/>
      <point x="318" y="358" type="curve"/>
      <point x="318" y="400" type="line"/>
    </contour>
    <contour>
      <point x="32" y="431" type="line"/>
      <point x="32" y="416" type="line"/>
      <point x="64" y="356" type="line"/>
      <point x="410" y="356" type="line"/>
      <point x="410" y="372" type="line"/>
      <point x="379" y="431" type="line"/>
    </contour>
    <contour>
      <point x="112" y="46" type="move" name="nukta"/>
    </contour>
    <contour>
      <point x="513" y="0" type="move" name="bottom"/>
    </contour>
    <contour>
      <point x="513" y="650" type="move" name="top"/>
    </contour>
  </outline>
</glyph>
<glyph name="radeva" format="1">
  <advance width="430"/>
  <unicode hex="0930"/>
  <outline>
    <contour>
      <point x="194" y="547"/>
      <point x="199" y="482"/>
      <point x="199" y="450" type="curve" smooth="yes"/>
      <point x="199" y="407"/>
      <point x="184" y="358"/>
      <point x="174" y="340" type="curve"/>
      <point x="119" y="382" type="line"/>
      <point x="100" y="370"/>
      <point x="66" y="340"/>
      <point x="66" y="306" type="curve" smooth="yes"/>
      <point x="66" y="272"/>
      <point x="89" y="250"/>
      <point x="126" y="207" type="curve" smooth="yes"/>
      <point x="347" y="-47" type="line"/>
      <point x="396" y="-10" type="line"/>
      <point x="187" y="211" type="line"/>
      <point x="232" y="252"/>
      <point x="280" y="309"/>
      <point x="280" y="404" type="curve" smooth="yes"/>
      <point x="280" y="448"/>
      <point x="273" y="528"/>
      <point x="261" y="585" type="curve"/>
      <point x="186" y="585" type="line"/>
    </contour>
    <contour>
      <point x="-31" y="650" type="line"/>
      <point x="-31" y="634" type="line"/>
      <point x="0" y="575" type="line"/>
      <point x="430" y="575" type="line"/>
      <point x="430" y="590" type="line"/>
      <point x="399" y="650" type="line"/>
    </contour>
    <contour>
      <point x="80" y="69" type="move" name="nukta"/>
    </contour>
    <contour>
      <point x="232" y="0" type="move" name="bottom"/>
    </contour>
    <contour>
      <point x="232" y="650" type="move" name="top"/>
    </contour>
  </outline>
</glyph>
<glyph name="shadeva" format="1">
  <advance width="743"/>
  <unicode hex="0936"/>
  <outline>
    <contour>
      <point x="151" y="632"/>
      <point x="104" y="594"/>
      <point x="104" y="531" type="curve" smooth="yes"/>
      <point x="104" y="434"/>
      <point x="196" y="352"/>
      <point x="287" y="316" type="curve"/>
      <point x="315" y="361" type="line"/>
      <point x="253" y="383"/>
      <point x="181" y="443"/>
      <point x="181" y="507" type="curve" smooth="yes"/>
      <point x="181" y="552"/>
      <point x="209" y="574"/>
      <point x="245" y="574" type="curve" smooth="yes"/>
      <point x="305" y="574"/>
      <point x="340" y="525"/>
      <point x="340" y="477" type="curve" smooth="yes"/>
      <point x="340" y="387"/>
      <point x="272" y="268"/>
      <point x="173" y="231" type="curve"/>
      <point x="216" y="193" type="line"/>
      <point x="136" y="314" type="line"/>
      <point x="133" y="315"/>
      <point x="127" y="316"/>
      <point x="120" y="316" type="curve" smooth="yes"/>
      <point x="94" y="316"/>
      <point x="51" y="285"/>
      <point x="51" y="241" type="curve" smooth="yes"/>
      <point x="51" y="196"/>
      <point x="136" y="161"/>
      <point x="167" y="161" type="curve"/>
      <point x="292" y="161"/>
      <point x="412" y="317"/>
      <point x="412" y="455" type="curve" smooth="yes"/>
      <point x="412" y="555"/>
      <point x="343" y="632"/>
      <point x="204" y="632" type="curve"/>
    </contour>
    <contour>
      <point x="288" y="-58" type="line"/>
      <point x="356" y="-17" type="line"/>
      <point x="220" y="188" type="line"/>
      <point x="171" y="189" type="line"/>
    </contour>
    <contour>
      <point x="545" y="605" type="line"/>
      <point x="545" y="-1" type="line"/>
      <point x="617" y="-42" type="line"/>
      <point x="633" y="-42" type="line"/>
      <point x="633" y="605" type="line"/>
    </contour>
    <contour>
      <point x="-31" y="650" type="line"/>
      <point x="-31" y="634" type="line"/>
      <point x="0" y="575" type="line"/>
      <point x="743" y="575" type="line"/>
      <point x="743" y="590" type="line"/>
      <point x="711" y="650" type="line"/>
    </contour>
    <contour>
      <point x="80" y="29" type="move" name="nukta"/>
    </contour>
    <contour>
      <point x="589" y="0" type="move" name="bottom"/>
    </contour>
    <contour>
      <point x="589" y="650" type="move" name="top"/>
    </contour>
  </outline>
</glyph>
<glyph name="uni093A" format="1">
  <advance width="0"/>
  <unicode hex="093A"/>
  <outline>
    <contour>
      <point x="-198" y="635" type="line"/>
      <point x="-109" y="635" type="line"/>
      <point x="-109" y="914" type="line"/>
      <point x="-198" y="914" type="line"/>
    </contour>
    <contour>
      <point x="-153" y="650" type="move" name="_top1"/>
    </contour>
  </outline>
</glyph>
<glyph name="nuktadeva" format="1">
  <advance width="0"/>
  <unicode hex="093C"/>
  <outline>
    <contour>
      <point x="-152" y="-222" type="line"/>
      <point x="-75" y="-142" type="line"/>
      <point x="-153" y="-65" type="line"/>
      <point x="-230" y="-143" type="line"/>
    </contour>
    <contour>
      <point x="-153" y="-143" type="move" name="_nukta"/>
    </contour>
  </outline>
</glyph>
<glyph name="avagrahadeva" format="1">
  <advance width="511"/>
  <unicode hex="093D"/>
  <outline>
    <contour>
      <point x="27" y="191" type="line"/>
      <point x="81" y="117"/>
      <point x="171" y="8"/>
      <point x="258" y="8" type="curve" smooth="yes"/>
      <point x="341" y="8"/>
      <point x="424" y="69"/>
      <point x="424" y="152" type="curve" smooth="yes"/>
      <point x="424" y="311"/>
      <point x="182" y="461"/>
      <point x="182" y="529" type="curve" smooth="yes"/>
      <point x="182" y="559"/>
      <point x="198" y="575"/>
      <point x="224" y="575" type="curve" smooth="yes"/>
      <point x="464" y="575" type="line"/>
      <point x="464" y="590" type="line"/>
      <point x="431" y="650" type="line"/>
      <point x="189" y="650" type="line" smooth="yes"/>
      <point x="146" y="650"/>
      <point x="95" y="607"/>
      <point x="95" y="563" type="curve" smooth="yes"/>
      <point x="95" y="482"/>
      <point x="346" y="320"/>
      <point x="346" y="182" type="curve" smooth="yes"/>
      <point x="346" y="142"/>
      <point x="307" y="93"/>
      <point x="239" y="93" type="curve" smooth="yes"/>
      <point x="165" y="93"/>
      <point x="94" y="171"/>
      <point x="58" y="215" type="curve"/>
    </contour>
  </outline>
</glyph>
<glyph name="rvocalicvowelsigndeva" format="1">
  <advance width="0"/>
  <unicode hex="0943"/>
  <outline>
    <contour>
      <point x="-110" y="20" type="line"/>
      <point x="-208" y="20"/>
      <point x="-283" y="-48"/>
      <point x="-283" y="-106" type="curve" smooth="yes"/>
      <point x="-283" y="-180"/>
      <point x="-178" y="-257"/>
      <point x="-104" y="-257" type="curve" smooth="yes"/>
      <point x="-77" y="-257"/>
      <point x="-38" y="-245"/>
      <point x="-11" y="-230" type="curve"/>
      <point x="-62" y="-155" type="line"/>
      <point x="-89" y="-171"/>
      <point x="-130" y="-182"/>
      <point x="-157" y="-182" type="curve" smooth="yes"/>
      <point x="-199" y="-182"/>
      <point x="-221" y="-151"/>
      <point x="-221" y="-129" type="curve" smooth="yes"/>
      <point x="-221" y="-84"/>
      <point x="-160" y="-47"/>
      <point x="-72" y="-47" type="curve"/>
    </contour>
    <contour>
      <point x="-153" y="0" type="move" name="_bottom"/>
    </contour>
  </outline>
</glyph>
<glyph name="danda-deva" format="1">
  <advance width="511"/>
  <unicode hex="0964"/>
  <outline>
    <contour>
      <point x="267" y="677" type="line"/>
      <point x="267" y="-1" type="line"/>
      <point x="340" y="-42" type="line"/>
      <point x="355" y="-42" type="line"/>
      <point x="355" y="636" type="line"/>
      <point x="283" y="677" type="line"/>
    </contour>
  </outline>
</glyph>
<glyph name="threedeva" format="1">
  <advance width="631"/>
  <unicode hex="0969"/>
  <outline>
    <contour>
      <point x="493" y="180"/>
      <point x="400" y="115"/>
      <point x="294" y="85" type="curve"/>
      <point x="294" y="170" type="line"/>
      <point x="285" y="174"/>
      <point x="277" y="175"/>
      <point x="264" y="175" type="curve" smooth="yes"/>
      <point x="224" y="175"/>
      <point x="177" y="147"/>
      <point x="177" y="101" type="curve" smooth="yes"/>
      <point x="177" y="63"/>
      <point x="232" y="31"/>
      <point x="272" y="21" type="curve"/>
      <point x="369" y="-160" type="line"/>
      <point x="422" y="-129" type="line"/>
      <point x="322" y="19" type="line"/>
      <point x="470" y="30"/>
      <point x="575" y="143"/>
      <point x="575" y="224" type="curve" smooth="yes"/>
      <point x="575" y="270"/>
      <point x="504" y="341"/>
      <point x="441" y="384" type="curve"/>
      <point x="466" y="407"/>
      <point x="482" y="435"/>
      <point x="482" y="469" type="curve" smooth="yes"/>
      <point x="482" y="542"/>
      <point x="356" y="671"/>
      <point x="271" y="671" type="curve" smooth="yes"/>
      <point x="197" y="671"/>
      <point x="116" y="659"/>
      <point x="55" y="647" type="curve"/>
      <point x="105" y="549" type="line"/>
      <point x="161" y="561"/>
      <point x="249" y="587"/>
      <point x="311" y="587" type="curve" smooth="yes"/>
      <point x="371" y="587"/>
      <point x="400" y="562"/>
      <point x="400" y="510" type="curve" smooth="yes"/>
      <point x="400" y="466"/>
      <point x="372" y="440"/>
      <point x="340" y="422" type="curve"/>
      <point x="243" y="419"/>
      <point x="142" y="392"/>
      <point x="142" y="369" type="curve" smooth="yes"/>
      <point x="142" y="323"/>
      <point x="168" y="298"/>
      <point x="194" y="298" type="curve" smooth="yes"/>
      <point x="239" y="298"/>
      <point x="312" y="311"/>
      <point x="374" y="340" type="curve"/>
      <point x="383" y="340"/>
      <point x="390" y="341"/>
      <point x="399" y="341" type="curve" smooth="yes"/>
      <point x="449" y="341"/>
      <point x="493" y="315"/>
      <point x="493" y="264" type="curve" smooth="yes"/>
    </contour>
  </outline>
</glyph>
<glyph name="uni0971" format="1">
  <advance width="307"/>
  <unicode hex="0971"/>
  <outline>
    <contour>
      <point x="144" y="531" type="line"/>
      <point x="221" y="610" type="line"/>
      <point x="143" y="688" type="line"/>
      <point x="66" y="609" type="line"/>
    </contour>
  </outline>
</glyph>
<glyph name="uni0979" format="1">
  <advance width="740"/>
  <unicode hex="0979"/>
  <outline>
    <contour>
      <point x="300" y="-222" type="line"/>
      <point x="377" y="-142" type="line"/>
      <point x="299" y="-65" type="line"/>
      <point x="222" y="-143" type="line"/>
    </contour>
    <contour>
      <point x="408" y="-110" type="line"/>
      <point x="485" y="-30" type="line"/>
      <point x="407" y="47" type="line"/>
      <point x="330" y="-31" type="line"/>
    </contour>
    <contour>
      <point x="190" y="-110" type="line"/>
      <point x="267" y="-30" type="line"/>
      <point x="189" y="47" type="line"/>
      <point x="112" y="-31" type="line"/>
    </contour>
    <component base="jadeva"/>
  </outline>
</glyph>
<glyph name="emdash" format="1">
  <advance width="1174"/>
  <unicode hex="2014"/>
  <outline>
    <contour>
      <point x="87" y="355" type="line"/>
      <point x="1087" y="355" type="line"/>
      <point x="1087" y="427" type="line"/>
      <point x="87" y="427" type="line"/>
    </contour>
  </outline>
</glyph>
<glyph name="greaterequal" format="1">
  <advance width="646"/>
  <unicode hex="2265"/>
  <outline>
    <contour>
      <point x="87" y="248" type="line"/>
      <point x="560" y="458" type="line"/>
      <point x="560" y="498" type="line"/>
      <point x="87" y="705" type="line"/>
      <point x="87" y="621" type="line"/>
      <point x="443" y="477" type="line"/>
      <point x="87" y="332" type="line"/>
    </contour>
    <contour>
      <point x="87" y="86" type="line"/>
      <point x="560" y="86" type="line"/>
      <point x="560" y="158" type="line"/>
      <point x="87" y="158" type="line"/>
    </contour>
  </outline>
</glyph>
<glyph name="uni092C094D" format="1">
  <advance width="407"/>
  <outline>
    <contour>
      <point x="167" y="485"/>
      <point x="66" y="410"/>
      <point x="66" y="278" type="curve" smooth="yes"/>
      <point x="66" y="159"/>
      <point x="175" y="93"/>
      <point x="276" y="93" type="curve" smooth="yes"/>
      <point x="355" y="93"/>
      <point x="414" y="146"/>
      <point x="521" y="229" type="curve"/>
      <point x="477" y="308" type="line"/>
      <point x="436" y="244"/>
      <point x="321" y="164"/>
      <point x="236" y="164" type="curve" smooth="yes"/>
      <point x="167" y="164"/>
      <point x="115" y="201"/>
      <point x="115" y="256" type="curve" smooth="yes"/>
      <point x="115" y="330"/>
      <point x="202" y="397"/>
      <point x="301" y="397" type="curve" smooth="yes"/>
      <point x="373" y="397"/>
      <point x="463" y="323"/>
      <point x="491" y="257" type="curve"/>
      <point x="521" y="229" type="line"/>
      <point x="521" y="276" type="line"/>
      <point x="464" y="384"/>
      <point x="356" y="485"/>
      <point x="250" y="485" type="curve" smooth="yes"/>
    </contour>
    <contour>
      <point x="191" y="383" type="line"/>
      <point x="335" y="165" type="line"/>
      <point x="367" y="182" type="line"/>
      <point x="221" y="404" type="line"/>
    </contour>
    <contour>
      <point x="-31" y="650" type="line"/>
      <point x="-31" y="634" type="line"/>
      <point x="0" y="575" type="line"/>
      <point x="439" y="575" type="line"/>
      <point x="439" y="590" type="line"/>
      <point x="407" y="650" type="line"/>
    </contour>
  </outline>
</glyph>
<glyph name="breve.cap" format="1">
  <advance width="280"/>
  <outline>
    <contour>
      <point x="140" y="787" type="curve" smooth="yes"/>
      <point x="234" y="787"/>
      <point x="298" y="858"/>
      <point x="298" y="938" type="curve"/>
      <point x="259" y="938" type="line"/>
      <point x="250" y="924"/>
      <point x="234" y="857"/>
      <point x="141" y="857" type="curve" smooth="yes"/>
      <point x="47" y="857"/>
      <point x="31" y="925"/>
      <point x="23" y="938" type="curve"/>
      <point x="-18" y="938" type="line"/>
      <point x="-18" y="858"/>
      <point x="41" y="787"/>
    </contour>
  </outline>
</glyph>
<glyph name="uni091B094D0935" format="1">
  <advance width="738"/>
  <outline>
    <contour>
      <point x="446" y="525"/>
      <point x="402" y="485"/>
      <point x="402" y="420" type="curve" smooth="yes"/>
      <point x="402" y="339"/>
      <point x="510" y="257"/>
      <point x="582" y="233" type="curve"/>
      <point x="605" y="279" type="line"/>
      <point x="557" y="293"/>
      <point x="478" y="344"/>
      <point x="478" y="400" type="curve" smooth="yes"/>
      <point x="478" y="438"/>
      <point x="500" y="463"/>
      <point x="532" y="463" type="curve" smooth="yes"/>
      <point x="566" y="463"/>
      <point x="607" y="439"/>
      <point x="607" y="375" type="curve" smooth="yes"/>
      <point x="607" y="267"/>
      <point x="472" y="193"/>
      <point x="303" y="193" type="curve" smooth="yes"/>
      <point x="252" y="193"/>
      <point x="211" y="210"/>
      <point x="211" y="241" type="curve" smooth="yes"/>
      <point x="211" y="276"/>
      <point x="235" y="305"/>
      <point x="289" y="305" type="curve" smooth="yes"/>
      <point x="309" y="305"/>
      <point x="333" y="302"/>
      <point x="350" y="297" type="curve"/>
      <point x="360" y="323" type="line"/>
      <point x="342" y="368" type="line"/>
      <point x="321" y="373"/>
      <point x="293" y="375"/>
      <point x="264" y="375" type="curve" smooth="yes"/>
      <point x="188" y="375"/>
      <point x="124" y="323"/>
      <point x="124" y="267" type="curve" smooth="yes"/>
      <point x="124" y="215"/>
      <point x="243" y="121"/>
      <point x="334" y="121" type="curve" smooth="yes"/>
      <point x="497" y="121"/>
      <point x="679" y="223"/>
      <point x="679" y="344" type="curve" smooth="yes"/>
      <point x="679" y="382"/>
      <point x="671" y="424"/>
      <point x="645" y="453" type="curve" smooth="yes"/>
      <point x="612" y="498"/>
      <point x="552" y="525"/>
      <point x="512" y="525" type="curve" smooth="yes"/>
    </contour>
    <contour>
      <point x="118" y="515"/>
      <point x="63" y="476"/>
      <point x="63" y="428" type="curve" smooth="yes"/>
      <point x="63" y="388"/>
      <point x="99" y="345"/>
      <point x="158" y="308" type="curve"/>
      <point x="195" y="337" type="line"/>
      <point x="161" y="354"/>
      <point x="139" y="382"/>
      <point x="139" y="405" type="curve" smooth="yes"/>
      <point x="139" y="438"/>
      <point x="173" y="449"/>
      <point x="207" y="449" type="curve" smooth="yes"/>
      <point x="234" y="449"/>
      <point x="274" y="438"/>
      <point x="303" y="421" type="curve"/>
      <point x="269" y="499" type="line"/>
      <point x="257" y="506"/>
      <point x="225" y="515"/>
      <point x="190" y="515" type="curve" smooth="yes"/>
    </contour>
    <contour>
      <point x="-31" y="650" type="line"/>
      <point x="-31" y="634" type="line"/>
      <point x="0" y="575" type="line"/>
      <point x="738" y="575" type="line"/>
      <point x="738" y="590" type="line"/>
      <point x="706" y="650" type="line"/>
    </contour>
    <contour>
      <point x="499" y="490" type="line"/>
      <point x="587" y="490" type="line"/>
      <point x="587" y="600" type="line"/>
      <point x="499" y="600" type="line"/>
    </contour>
    <contour>
      <point x="286" y="185"/>
      <point x="192" y="111"/>
      <point x="192" y="32" type="curve" smooth="yes"/>
      <point x="192" y="-57"/>
      <point x="253" y="-119"/>
      <point x="351" y="-119" type="curve" smooth="yes"/>
      <point x="446" y="-119"/>
      <point x="515" y="-44"/>
      <point x="552" y="33" type="curve"/>
      <point x="509" y="147" type="line"/>
      <point x="488" y="59"/>
      <point x="416" y="-67"/>
      <point x="328" y="-67" type="curve" smooth="yes"/>
      <point x="289" y="-67"/>
      <point x="270" y="-51"/>
      <point x="270" y="-6" type="curve" smooth="yes"/>
      <point x="270" y="56"/>
      <point x="336" y="125"/>
      <point x="398" y="125" type="curve"/>
      <point x="445" y="125"/>
      <point x="488" y="115"/>
      <point x="535" y="73" type="curve"/>
      <point x="499" y="151" type="line"/>
      <point x="431" y="180"/>
      <point x="382" y="185"/>
      <point x="352" y="185" type="curve"/>
    </contour>
    <contour>
      <point x="499" y="-167" type="line"/>
      <point x="561" y="-201" type="line"/>
      <point x="577" y="-201" type="line"/>
      <point x="577" y="192" type="line"/>
      <point x="499" y="185" type="line"/>
    </contour>
    <contour>
      <point x="544" y="650" type="move" name="top"/>
    </contour>
    <contour>
      <point x="544" y="-167" type="move" name="bottom"/>
    </contour>
  </outline>
</glyph>
<glyph name="uni0926094D092D" format="1">
  <advance width="770"/>
  <outline>
    <contour>
      <point x="588" y="76" type="line"/>
      <point x="690" y="-140" type="line"/>
      <point x="750" y="-109" type="line"/>
      <point x="630" y="96" type="line"/>
      <point x="671" y="118"/>
      <point x="690" y="153"/>
      <point x="690" y="189" type="curve" smooth="yes"/>
      <point x="690" y="240"/>
      <point x="650" y="288"/>
      <point x="593" y="288" type="curve" smooth="yes"/>
      <point x="568" y="288"/>
      <point x="534" y="280"/>
      <point x="503" y="250" type="curve"/>
      <point x="550" y="152" type="line"/>
      <point x="538" y="150"/>
      <point x="520" y="148"/>
      <point x="504" y="148" type="curve" smooth="yes"/>
      <point x="455" y="148"/>
      <point x="322" y="180"/>
      <point x="322" y="288" type="curve" smooth="yes"/>
      <point x="322" y="372"/>
      <point x="378" y="415"/>
      <point x="494" y="415" type="curve" smooth="yes"/>
      <point x="619" y="415" type="line"/>
      <point x="619" y="575" type="line"/>
      <point x="770" y="575" type="line"/>
      <point x="770" y="590" type="line"/>
      <point x="739" y="650" type="line"/>
      <point x="-31" y="650" type="line"/>
      <point x="-31" y="634" type="line"/>
      <point x="0" y="575" type="line"/>
      <point x="531" y="575" type="line"/>
      <point x="531" y="495" type="line"/>
      <point x="489" y="495" type="line" smooth="yes"/>
      <point x="337" y="495"/>
      <point x="273" y="449"/>
      <point x="273" y="314" type="curve" smooth="yes"/>
      <point x="273" y="197"/>
      <point x="375" y="111"/>
      <point x="462" y="84" type="curve"/>
    </contour>
    <contour>
      <point x="214" y="-112"/>
      <point x="271" y="-163"/>
      <point x="319" y="-163" type="curve" smooth="yes"/>
      <point x="352" y="-163"/>
      <point x="381" y="-142"/>
      <point x="381" y="-106" type="curve" smooth="yes"/>
      <point x="381" y="-83"/>
      <point x="374" y="-62"/>
      <point x="360" y="-36" type="curve" smooth="yes"/>
      <point x="249" y="169" type="line" smooth="yes"/>
      <point x="217" y="228"/>
      <point x="169" y="245"/>
      <point x="121" y="245" type="curve" smooth="yes"/>
      <point x="75" y="245"/>
      <point x="24" y="206"/>
      <point x="24" y="152" type="curve" smooth="yes"/>
      <point x="24" y="102"/>
      <point x="77" y="24"/>
      <point x="174" y="24" type="curve" smooth="yes"/>
      <point x="183" y="24"/>
      <point x="213" y="27"/>
      <point x="262" y="31" type="curve"/>
      <point x="245" y="81" type="line"/>
      <point x="202" y="77"/>
      <point x="197" y="74"/>
      <point x="175" y="74" type="curve" smooth="yes"/>
      <point x="121" y="74"/>
      <point x="97" y="112"/>
      <point x="97" y="142" type="curve" smooth="yes"/>
      <point x="97" y="171"/>
      <point x="113" y="185"/>
      <point x="130" y="185" type="curve" smooth="yes"/>
      <point x="147" y="185"/>
      <point x="171" y="179"/>
      <point x="186" y="150" type="curve" smooth="yes"/>
      <point x="198" y="129"/>
      <point x="206" y="112"/>
      <point x="232" y="30" type="curve"/>
      <point x="294" y="-79" type="line"/>
      <point x="588" y="76" type="line"/>
      <point x="556" y="136" type="line"/>
      <point x="190" y="-57" type="line"/>
    </contour>
    <contour>
      <point x="575" y="650" type="move" name="top"/>
    </contour>
    <contour>
      <point x="655" y="-135" type="move" name="bottom"/>
    </contour>
  </outline>
</glyph>
<glyph name="uni0926094D0927094D0930094D092F" format="1">
  <advance width="1291"/>
  <outline>
    <contour>
      <point x="83" y="224"/>
      <point x="21" y="177"/>
      <point x="21" y="102" type="curve" smooth="yes"/>
      <point x="21" y="4"/>
      <point x="129" y="-35"/>
      <point x="288" y="-19" type="curve"/>
      <point x="287" y="28" type="line"/>
      <point x="274" y="25"/>
      <point x="265" y="24"/>
      <point x="254" y="24" type="curve" smooth="yes"/>
      <point x="170" y="24"/>
      <point x="103" y="47"/>
      <point x="103" y="109" type="curve" smooth="yes"/>
      <point x="103" y="157"/>
      <point x="135" y="172"/>
      <point x="157" y="179" type="curve"/>
      <point x="214" y="109" type="line"/>
      <point x="230" y="114"/>
      <point x="253" y="135"/>
      <point x="253" y="161" type="curve" smooth="yes"/>
      <point x="253" y="193"/>
      <point x="224" y="224"/>
      <point x="170" y="224" type="curve" smooth="yes"/>
    </contour>
    <contour>
      <point x="375" y="146" type="line"/>
      <point x="308" y="112"/>
      <point x="249" y="82"/>
      <point x="249" y="3" type="curve" smooth="yes"/>
      <point x="249" y="-86"/>
      <point x="318" y="-113"/>
      <point x="416" y="-113" type="curve" smooth="yes"/>
      <point x="471" y="-113"/>
      <point x="562" y="-73"/>
      <point x="609" y="4" type="curve"/>
      <point x="566" y="118" type="line"/>
      <point x="545" y="29"/>
      <point x="462" y="-61"/>
      <point x="392" y="-61" type="curve" smooth="yes"/>
      <point x="354" y="-61"/>
      <point x="327" y="-35"/>
      <point x="327" y="10" type="curve" smooth="yes"/>
      <point x="327" y="52"/>
      <point x="359" y="80"/>
      <point x="421" y="107" type="curve"/>
      <point x="421" y="147" type="line"/>
    </contour>
    <contour>
      <point x="440" y="650" type="line"/>
      <point x="440" y="634" type="line"/>
      <point x="471" y="575" type="line"/>
      <point x="1093" y="575" type="line"/>
      <point x="1093" y="229" type="line"/>
      <point x="1058" y="187"/>
      <point x="978" y="137"/>
      <point x="899" y="137" type="curve" smooth="yes"/>
      <point x="844" y="137"/>
      <point x="813" y="162"/>
      <point x="792" y="208" type="curve"/>
      <point x="856" y="234"/>
      <point x="920" y="264"/>
      <point x="920" y="317" type="curve" smooth="yes"/>
      <point x="920" y="381"/>
      <point x="815" y="471"/>
      <point x="730" y="471" type="curve" smooth="yes"/>
      <point x="563" y="471" type="line"/>
      <point x="563" y="391" type="line"/>
      <point x="781" y="391" type="line" smooth="yes"/>
      <point x="832" y="391"/>
      <point x="847" y="372"/>
      <point x="847" y="346" type="curve" smooth="yes"/>
      <point x="847" y="310"/>
      <point x="774" y="278"/>
      <point x="706" y="260" type="curve"/>
      <point x="748" y="148"/>
      <point x="829" y="58"/>
      <point x="939" y="58" type="curve" smooth="yes"/>
      <point x="998" y="58"/>
      <point x="1052" y="86"/>
      <point x="1090" y="113" type="curve"/>
      <point x="1095" y="110" type="line"/>
      <point x="1092" y="0" type="line"/>
      <point x="1166" y="-42" type="line"/>
      <point x="1182" y="-42" type="line"/>
      <point x="1182" y="575" type="line"/>
      <point x="1291" y="575" type="line"/>
      <point x="1291" y="590" type="line"/>
      <point x="1260" y="650" type="line"/>
    </contour>
    <contour>
      <point x="520" y="-191" type="line" smooth="yes"/>
      <point x="578" y="-199" type="line"/>
      <point x="606" y="3" type="line"/>
      <point x="570" y="24" type="line"/>
    </contour>
    <contour>
      <point x="-31" y="650" type="line"/>
      <point x="-31" y="634" type="line"/>
      <point x="0" y="575" type="line"/>
      <point x="501" y="575" type="line"/>
      <point x="501" y="471" type="line"/>
      <point x="422" y="471" type="line" smooth="yes"/>
      <point x="288" y="471"/>
      <point x="224" y="431"/>
      <point x="224" y="333" type="curve" smooth="yes"/>
      <point x="224" y="178"/>
      <point x="364" y="85"/>
      <point x="456" y="85" type="curve" smooth="yes"/>
      <point x="492" y="85"/>
      <point x="523" y="89"/>
      <point x="550" y="98" type="curve"/>
      <point x="645" y="-115" type="line"/>
      <point x="704" y="-85" type="line"/>
      <point x="590" y="115" type="line"/>
      <point x="636" y="140"/>
      <point x="661" y="172"/>
      <point x="661" y="213" type="curve" smooth="yes"/>
      <point x="661" y="247"/>
      <point x="632" y="294"/>
      <point x="567" y="294" type="curve" smooth="yes"/>
      <point x="543" y="294"/>
      <point x="508" y="283"/>
      <point x="478" y="259" type="curve"/>
      <point x="520" y="165" type="line"/>
      <point x="501" y="162"/>
      <point x="478" y="160"/>
      <point x="456" y="160" type="curve" smooth="yes"/>
      <point x="416" y="160"/>
      <point x="273" y="191"/>
      <point x="273" y="306" type="curve" smooth="yes"/>
      <point x="273" y="355"/>
      <point x="320" y="391"/>
      <point x="445" y="391" type="curve" smooth="yes"/>
      <point x="590" y="391" type="line"/>
      <point x="590" y="575" type="line"/>
      <point x="741" y="575" type="line"/>
      <point x="741" y="590" type="line"/>
      <point x="709" y="650" type="line"/>
    </contour>
    <contour>
      <point x="1137" y="650" type="move" name="top"/>
    </contour>
    <contour>
      <point x="1137" y="0" type="move" name="bottom"/>
    </contour>
  </outline>
</glyph>
<glyph name="uni0926094D092E" format="1">
  <advance width="739"/>
  <outline>
    <contour>
      <point x="-31" y="650" type="line"/>
      <point x="-31" y="634" type="line"/>
      <point x="0" y="575" type="line"/>
      <point x="231" y="575" type="line"/>
      <point x="231" y="435" type="line"/>
      <point x="319" y="435" type="line"/>
      <point x="319" y="575" type="line"/>
      <point x="542" y="575" type="line"/>
      <point x="542" y="-1" type="line"/>
      <point x="614" y="-42" type="line"/>
      <point x="630" y="-42" type="line"/>
      <point x="630" y="575" type="line"/>
      <point x="739" y="575" type="line"/>
      <point x="739" y="590" type="line"/>
      <point x="708" y="650" type="line"/>
    </contour>
    <contour>
      <point x="204" y="208"/>
      <point x="190" y="198"/>
      <point x="190" y="177" type="curve" smooth="yes"/>
      <point x="190" y="151"/>
      <point x="227" y="103"/>
      <point x="257" y="69" type="curve" smooth="yes"/>
      <point x="283" y="39"/>
      <point x="319" y="-1"/>
      <point x="344" y="-1" type="curve" smooth="yes"/>
      <point x="360" y="-1"/>
      <point x="367" y="9"/>
      <point x="367" y="25" type="curve" smooth="yes"/>
      <point x="367" y="58"/>
      <point x="363" y="90"/>
      <point x="361" y="126" type="curve"/>
      <point x="270" y="203" type="line"/>
      <point x="252" y="207"/>
      <point x="234" y="208"/>
      <point x="226" y="208" type="curve" smooth="yes"/>
    </contour>
    <contour>
      <point x="181" y="509" type="line" smooth="yes"/>
      <point x="73" y="509"/>
      <point x="22" y="485"/>
      <point x="22" y="414" type="curve" smooth="yes"/>
      <point x="22" y="323"/>
      <point x="74" y="268"/>
      <point x="204" y="268" type="curve"/>
      <point x="348" y="268" type="line"/>
      <point x="348" y="343" type="line"/>
      <point x="181" y="343" type="line"/>
      <point x="106" y="343"/>
      <point x="71" y="354"/>
      <point x="71" y="387" type="curve" smooth="yes"/>
      <point x="71" y="429"/>
      <point x="106" y="435"/>
      <point x="204" y="435" type="curve" smooth="yes"/>
      <point x="319" y="435" type="line"/>
      <point x="319" y="509" type="line"/>
    </contour>
    <contour>
      <point x="261" y="343" type="line"/>
      <point x="261" y="109" type="line"/>
      <point x="571" y="109" type="line"/>
      <point x="571" y="184" type="line"/>
      <point x="348" y="184" type="line"/>
      <point x="348" y="343" type="line"/>
    </contour>
    <contour>
      <point x="586" y="650" type="move" name="top"/>
    </contour>
    <contour>
      <point x="586" y="0" type="move" name="bottom"/>
    </contour>
  </outline>
</glyph>
<glyph name="uni0926094D0935" format="1">
  <advance width="578"/>
  <outline>
    <contour>
      <point x="-31" y="650" type="line"/>
      <point x="-31" y="634" type="line"/>
      <point x="0" y="575" type="line"/>
      <point x="338" y="575" type="line"/>
      <point x="338" y="471" type="line"/>
      <point x="259" y="471" type="line" smooth="yes"/>
      <point x="125" y="471"/>
      <point x="61" y="431"/>
      <point x="61" y="333" type="curve" smooth="yes"/>
      <point x="61" y="178"/>
      <point x="201" y="85"/>
      <point x="293" y="85" type="curve" smooth="yes"/>
      <point x="329" y="85"/>
      <point x="360" y="89"/>
      <point x="387" y="98" type="curve"/>
      <point x="482" y="-115" type="line"/>
      <point x="541" y="-85" type="line"/>
      <point x="427" y="115" type="line"/>
      <point x="473" y="140"/>
      <point x="498" y="172"/>
      <point x="498" y="213" type="curve" smooth="yes"/>
      <point x="498" y="247"/>
      <point x="469" y="294"/>
      <point x="404" y="294" type="curve" smooth="yes"/>
      <point x="387" y="294"/>
      <point x="361" y="288"/>
      <point x="339" y="275" type="curve"/>
      <point x="361" y="166" type="line"/>
      <point x="341" y="162"/>
      <point x="317" y="160"/>
      <point x="293" y="160" type="curve" smooth="yes"/>
      <point x="253" y="160"/>
      <point x="110" y="191"/>
      <point x="110" y="306" type="curve" smooth="yes"/>
      <point x="110" y="355"/>
      <point x="157" y="391"/>
      <point x="282" y="391" type="curve" smooth="yes"/>
      <point x="427" y="391" type="line"/>
      <point x="427" y="575" type="line"/>
      <point x="578" y="575" type="line"/>
      <point x="578" y="590" type="line"/>
      <point x="546" y="650" type="line"/>
    </contour>
    <contour>
      <point x="180" y="144"/>
      <point x="86" y="70"/>
      <point x="86" y="-9" type="curve" smooth="yes"/>
      <point x="86" y="-98"/>
      <point x="147" y="-160"/>
      <point x="245" y="-160" type="curve" smooth="yes"/>
      <point x="340" y="-160"/>
      <point x="409" y="-85"/>
      <point x="446" y="-8" type="curve"/>
      <point x="403" y="106" type="line"/>
      <point x="382" y="18"/>
      <point x="310" y="-108"/>
      <point x="222" y="-108" type="curve" smooth="yes"/>
      <point x="183" y="-108"/>
      <point x="164" y="-92"/>
      <point x="164" y="-47" type="curve" smooth="yes"/>
      <point x="164" y="15"/>
      <point x="230" y="84"/>
      <point x="292" y="84" type="curve"/>
      <point x="339" y="84"/>
      <point x="382" y="74"/>
      <point x="429" y="32" type="curve"/>
      <point x="393" y="110" type="line"/>
      <point x="325" y="139"/>
      <point x="276" y="144"/>
      <point x="246" y="144" type="curve"/>
    </contour>
    <contour>
      <point x="382" y="650" type="move" name="top"/>
    </contour>
    <contour>
      <point x="529" y="-115" type="move" name="bottom"/>
    </contour>
  </outline>
</glyph>
<glyph name="dadeva_rvocalicvowelsigndeva.blws" format="1">
  <advance width="578"/>
  <outline>
    <contour>
      <point x="398" y="-64"/>
      <point x="323" y="-132"/>
      <point x="323" y="-190" type="curve" smooth="yes"/>
      <point x="323" y="-264"/>
      <point x="428" y="-341"/>
      <point x="502" y="-341" type="curve" smooth="yes"/>
      <point x="529" y="-341"/>
      <point x="568" y="-329"/>
      <point x="595" y="-314" type="curve"/>
      <point x="544" y="-239" type="line"/>
      <point x="517" y="-255"/>
      <point x="476" y="-265"/>
      <point x="449" y="-265" type="curve" smooth="yes"/>
      <point x="407" y="-265"/>
      <point x="386" y="-235"/>
      <point x="386" y="-213" type="curve" smooth="yes"/>
      <point x="386" y="-168"/>
      <point x="446" y="-131"/>
      <point x="534" y="-131" type="curve"/>
      <point x="427" y="56" type="line"/>
      <point x="473" y="82"/>
      <point x="498" y="121"/>
      <point x="498" y="160" type="curve" smooth="yes"/>
      <point x="498" y="211"/>
      <point x="466" y="258"/>
      <point x="400" y="258" type="curve" smooth="yes"/>
      <point x="384" y="258"/>
      <point x="357" y="255"/>
      <point x="335" y="239" type="curve"/>
      <point x="361" y="110" type="line"/>
      <point x="341" y="106"/>
      <point x="317" y="104"/>
      <point x="293" y="104" type="curve" smooth="yes"/>
      <point x="253" y="104"/>
      <point x="110" y="136"/>
      <point x="110" y="251" type="curve" smooth="yes"/>
      <point x="110" y="329"/>
      <point x="157" y="385"/>
      <point x="282" y="385" type="curve" smooth="yes"/>
      <point x="427" y="385" type="line"/>
      <point x="427" y="575" type="line"/>
      <point x="578" y="575" type="line"/>
      <point x="578" y="590" type="line"/>
      <point x="546" y="650" type="line"/>
      <point x="-31" y="650" type="line"/>
      <point x="-31" y="634" type="line"/>
      <point x="0" y="575" type="line"/>
      <point x="338" y="575" type="line"/>
      <point x="338" y="468" type="line"/>
      <point x="259" y="468" type="line" smooth="yes"/>
      <point x="125" y="468"/>
      <point x="61" y="414"/>
      <point x="61" y="277" type="curve" smooth="yes"/>
      <point x="61" y="118"/>
      <point x="201" y="25"/>
      <point x="293" y="25" type="curve" smooth="yes"/>
      <point x="329" y="25"/>
      <point x="360" y="29"/>
      <point x="387" y="38" type="curve"/>
      <point x="463" y="-140" type="line"/>
      <point x="496" y="-64" type="line"/>
    </contour>
    <contour>
      <point x="382" y="0" type="move" name="bottom1"/>
    </contour>
    <contour>
      <point x="382" y="650" type="move" name="top1"/>
    </contour>
  </outline>
</glyph>
<glyph name="uni0922094D0930" format="1">
  <advance width="600"/>
  <outline>
    <contour>
      <point x="-31" y="650" type="line"/>
      <point x="-31" y="634" type="line"/>
      <point x="0" y="575" type="line"/>
      <point x="347" y="575" type="line"/>
      <point x="347" y="460" type="line"/>
      <point x="250" y="460" type="line" smooth="yes"/>
      <point x="148" y="460"/>
      <point x="52" y="414"/>
      <point x="52" y="268" type="curve" smooth="yes"/>
      <point x="52" y="66"/>
      <point x="229" y="-30"/>
      <point x="339" y="-30" type="curve" smooth="yes"/>
      <point x="412" y="-30"/>
      <point x="512" y="20"/>
      <point x="512" y="121" type="curve" smooth="yes"/>
      <point x="512" y="213"/>
      <point x="444" y="282"/>
      <point x="361" y="282" type="curve" smooth="yes"/>
      <point x="302" y="282"/>
      <point x="233" y="254"/>
      <point x="233" y="160" type="curve" smooth="yes"/>
      <point x="233" y="111"/>
      <point x="258" y="68"/>
      <point x="279" y="39" type="curve"/>
      <point x="312" y="39" type="line"/>
      <point x="305" y="55"/>
      <point x="291" y="79"/>
      <point x="291" y="116" type="curve" smooth="yes"/>
      <point x="291" y="183"/>
      <point x="351" y="217"/>
      <point x="393" y="217" type="curve" smooth="yes"/>
      <point x="427" y="217"/>
      <point x="468" y="189"/>
      <point x="468" y="142" type="curve" smooth="yes"/>
      <point x="468" y="90"/>
      <point x="394" y="51"/>
      <point x="307" y="49" type="curve"/>
      <point x="246" y="49"/>
      <point x="102" y="112"/>
      <point x="102" y="241" type="curve" smooth="yes"/>
      <point x="102" y="329"/>
      <point x="174" y="375"/>
      <point x="273" y="375" type="curve" smooth="yes"/>
      <point x="435" y="375" type="line"/>
      <point x="435" y="575" type="line"/>
      <point x="573" y="575" type="line"/>
      <point x="573" y="590" type="line"/>
      <point x="541" y="650" type="line"/>
    </contour>
    <contour>
      <point x="117" y="-233" type="line"/>
      <point x="299" y="-91" type="line"/>
      <point x="443" y="-237" type="line"/>
      <point x="491" y="-200" type="line"/>
      <point x="295" y="-12" type="line"/>
      <point x="47" y="-170" type="line"/>
    </contour>
    <contour>
      <point x="391" y="650" type="move" name="top"/>
    </contour>
    <contour>
      <point x="398" y="-191" type="move" name="bottom"/>
    </contour>
  </outline>
</glyph>
<glyph name="uni0922094D092F" format="1">
  <advance width="1163"/>
  <outline>
    <contour>
      <point x="1132" y="650" type="line"/>
      <point x="-31" y="650" type="line"/>
      <point x="-31" y="634" type="line"/>
      <point x="0" y="575" type="line"/>
      <point x="348" y="575" type="line"/>
      <point x="348" y="471" type="line"/>
      <point x="250" y="471" type="line" smooth="yes"/>
      <point x="148" y="471"/>
      <point x="52" y="424"/>
      <point x="52" y="268" type="curve" smooth="yes"/>
      <point x="52" y="66"/>
      <point x="230" y="-30"/>
      <point x="339" y="-30" type="curve" smooth="yes"/>
      <point x="412" y="-30"/>
      <point x="513" y="20"/>
      <point x="513" y="121" type="curve" smooth="yes"/>
      <point x="513" y="213"/>
      <point x="445" y="282"/>
      <point x="362" y="282" type="curve" smooth="yes"/>
      <point x="302" y="282"/>
      <point x="234" y="254"/>
      <point x="234" y="160" type="curve" smooth="yes"/>
      <point x="234" y="124"/>
      <point x="248" y="85"/>
      <point x="269" y="55" type="curve"/>
      <point x="207" y="72"/>
      <point x="102" y="129"/>
      <point x="102" y="241" type="curve" smooth="yes"/>
      <point x="102" y="343"/>
      <point x="173" y="391"/>
      <point x="274" y="391" type="curve" smooth="yes"/>
      <point x="653" y="391" type="line" smooth="yes"/>
      <point x="703" y="391"/>
      <point x="719" y="372"/>
      <point x="719" y="346" type="curve" smooth="yes"/>
      <point x="719" y="310"/>
      <point x="646" y="278"/>
      <point x="577" y="260" type="curve"/>
      <point x="619" y="148"/>
      <point x="700" y="58"/>
      <point x="811" y="58" type="curve" smooth="yes"/>
      <point x="870" y="58"/>
      <point x="924" y="86"/>
      <point x="962" y="113" type="curve"/>
      <point x="967" y="110" type="line"/>
      <point x="964" y="0" type="line"/>
      <point x="1038" y="-42" type="line"/>
      <point x="1054" y="-42" type="line"/>
      <point x="1054" y="575" type="line"/>
      <point x="1163" y="575" type="line"/>
      <point x="1163" y="590" type="line"/>
    </contour>
    <contour>
      <point x="965" y="229" type="line"/>
      <point x="930" y="187"/>
      <point x="850" y="137"/>
      <point x="771" y="137" type="curve" smooth="yes"/>
      <point x="716" y="137"/>
      <point x="685" y="162"/>
      <point x="663" y="208" type="curve"/>
      <point x="728" y="234"/>
      <point x="792" y="264"/>
      <point x="792" y="317" type="curve" smooth="yes"/>
      <point x="792" y="381"/>
      <point x="687" y="471"/>
      <point x="602" y="471" type="curve" smooth="yes"/>
      <point x="436" y="471" type="line"/>
      <point x="436" y="575" type="line"/>
      <point x="965" y="575" type="line"/>
    </contour>
    <contour>
      <point x="426" y="217"/>
      <point x="468" y="189"/>
      <point x="468" y="142" type="curve" smooth="yes"/>
      <point x="468" y="90"/>
      <point x="394" y="51"/>
      <point x="307" y="49" type="curve"/>
      <point x="299" y="64"/>
      <point x="290" y="87"/>
      <point x="290" y="116" type="curve" smooth="yes"/>
      <point x="290" y="183"/>
      <point x="351" y="217"/>
      <point x="393" y="217" type="curve" smooth="yes"/>
    </contour>
    <contour>
      <point x="1009" y="0" type="move" name="bottom1"/>
    </contour>
    <contour>
      <point x="1009" y="650" type="move" name="top1"/>
    </contour>
  </outline>
</glyph>
<glyph name="f_f_l" format="1">
  <advance width="1158"/>
  <outline>
    <contour>
      <point x="462" y="0" type="line"/>
      <point x="767" y="0" type="line"/>
      <point x="767" y="42" type="line"/>
      <point x="654" y="51" type="line"/>
      <point x="654" y="480" type="line"/>
      <point x="802" y="480" type="line"/>
      <point x="802" y="546" type="line"/>
      <point x="654" y="546" type="line"/>
      <point x="654" y="627" type="line" smooth="yes"/>
      <point x="654" y="738"/>
      <point x="688" y="749"/>
      <point x="741" y="749" type="curve" smooth="yes"/>
      <point x="788" y="749"/>
      <point x="821" y="739"/>
      <point x="831" y="733" type="curve"/>
      <point x="831" y="816" type="line"/>
      <point x="823" y="820"/>
      <point x="805" y="825"/>
      <point x="761" y="825" type="curve" smooth="yes"/>
      <point x="678" y="825"/>
      <point x="561" y="732"/>
      <point x="561" y="587" type="curve" smooth="yes"/>
      <point x="561" y="546" type="line"/>
      <point x="453" y="518" type="line"/>
      <point x="453" y="480" type="line"/>
      <point x="561" y="480" type="line"/>
      <point x="561" y="52" type="line"/>
      <point x="462" y="42" type="line"/>
    </contour>
    <contour>
      <point x="54" y="0" type="line"/>
      <point x="358" y="0" type="line"/>
      <point x="358" y="42" type="line"/>
      <point x="246" y="51" type="line"/>
      <point x="246" y="480" type="line"/>
      <point x="393" y="480" type="line"/>
      <point x="393" y="546" type="line"/>
      <point x="246" y="546" type="line"/>
      <point x="246" y="627" type="line" smooth="yes"/>
      <point x="246" y="738"/>
      <point x="280" y="749"/>
      <point x="333" y="749" type="curve" smooth="yes"/>
      <point x="379" y="749"/>
      <point x="413" y="739"/>
      <point x="422" y="733" type="curve"/>
      <point x="422" y="816" type="line"/>
      <point x="415" y="820"/>
      <point x="396" y="825"/>
      <point x="352" y="825" type="curve" smooth="yes"/>
      <point x="270" y="825"/>
      <point x="152" y="732"/>
      <point x="152" y="587" type="curve" smooth="yes"/>
      <point x="152" y="546" type="line"/>
      <point x="44" y="518" type="line"/>
      <point x="44" y="480" type="line"/>
      <point x="152" y="480" type="line"/>
      <point x="152" y="52" type="line"/>
      <point x="54" y="42" type="line"/>
    </contour>
    <contour>
      <point x="870" y="0" type="line"/>
      <point x="1134" y="0" type="line"/>
      <point x="1134" y="42" type="line"/>
      <point x="1047" y="52" type="line"/>
      <point x="1047" y="782" type="line"/>
      <point x="1028" y="793" type="line"/>
      <point x="875" y="773" type="line"/>
      <point x="875" y="730" type="line"/>
      <point x="953" y="713" type="line"/>
      <point x="953" y="52" type="line"/>
      <point x="870" y="42" type="line"/>
    </contour>
  </outline>
</glyph>
<glyph name="uni0917094D0930094D" format="1">
  <advance width="295"/>
  <outline>
    <contour>
      <point x="392" y="251" type="line"/>
      <point x="392" y="251"/>
      <point x="433" y="184"/>
      <point x="433" y="184" type="curve"/>
      <point x="182" y="-27" type="line"/>
      <point x="126" y="41" type="line"/>
    </contour>
    <contour>
      <point x="-31" y="650" type="line"/>
      <point x="-31" y="634" type="line"/>
      <point x="0" y="575" type="line"/>
      <point x="328" y="575" type="line"/>
      <point x="328" y="590" type="line"/>
      <point x="296" y="650" type="line"/>
    </contour>
    <contour>
      <point x="143" y="383" type="line"/>
      <point x="45" y="396" type="line"/>
      <point x="41" y="385"/>
      <point x="39" y="371"/>
      <point x="39" y="355" type="curve" smooth="yes"/>
      <point x="39" y="311"/>
      <point x="73" y="232"/>
      <point x="153" y="232" type="curve" smooth="yes"/>
      <point x="220" y="232"/>
      <point x="231" y="302"/>
      <point x="231" y="338" type="curve" smooth="yes"/>
      <point x="231" y="419"/>
      <point x="225" y="533"/>
      <point x="220" y="610" type="curve"/>
      <point x="154" y="629" type="line"/>
    </contour>
  </outline>
</glyph>
<glyph name="uni095A094D" format="1">
  <advance width="295"/>
  <outline>
    <contour>
      <point x="256" y="-28" type="line"/>
      <point x="332" y="51" type="line"/>
      <point x="255" y="129" type="line"/>
      <point x="178" y="50" type="line"/>
    </contour>
    <contour>
      <point x="327" y="575" type="line"/>
      <point x="327" y="590" type="line"/>
      <point x="295" y="650" type="line"/>
      <point x="-31" y="650" type="line"/>
      <point x="-31" y="634" type="line"/>
      <point x="0" y="575" type="line"/>
      <point x="143" y="575" type="line"/>
      <point x="143" y="328" type="line"/>
      <point x="45" y="341" type="line"/>
      <point x="41" y="330"/>
      <point x="39" y="316"/>
      <point x="39" y="300" type="curve" smooth="yes"/>
      <point x="39" y="256"/>
      <point x="73" y="177"/>
      <point x="153" y="177" type="curve" smooth="yes"/>
      <point x="225" y="177"/>
      <point x="236" y="248"/>
      <point x="236" y="284" type="curve" smooth="yes"/>
      <point x="236" y="372"/>
      <point x="229" y="485"/>
      <point x="220" y="575" type="curve"/>
    </contour>
  </outline>
</glyph>
<glyph name="uni0939094D092E" format="1">
  <advance width="793"/>
  <outline>
    <contour>
      <point x="-31" y="650" type="line"/>
      <point x="-31" y="634" type="line"/>
      <point x="0" y="575" type="line"/>
      <point x="390" y="575" type="line"/>
      <point x="390" y="503" type="line"/>
      <point x="161" y="503" type="line" smooth="yes"/>
      <point x="99" y="503"/>
      <point x="63" y="489"/>
      <point x="63" y="415" type="curve" smooth="yes"/>
      <point x="63" y="349"/>
      <point x="110" y="303"/>
      <point x="160" y="262" type="curve"/>
      <point x="198" y="295" type="line"/>
      <point x="159" y="320"/>
      <point x="126" y="353"/>
      <point x="126" y="378" type="curve" smooth="yes"/>
      <point x="126" y="404"/>
      <point x="141" y="424"/>
      <point x="184" y="424" type="curve" smooth="yes"/>
      <point x="478" y="424" type="line"/>
      <point x="478" y="575" type="line"/>
      <point x="602" y="575" type="line"/>
      <point x="602" y="590" type="line"/>
      <point x="570" y="650" type="line"/>
    </contour>
    <contour>
      <point x="219" y="650" type="line"/>
      <point x="219" y="634" type="line"/>
      <point x="250" y="575" type="line"/>
      <point x="596" y="575" type="line"/>
      <point x="596" y="-1" type="line"/>
      <point x="669" y="-42" type="line"/>
      <point x="684" y="-42" type="line"/>
      <point x="684" y="575" type="line"/>
      <point x="793" y="575" type="line"/>
      <point x="793" y="590" type="line"/>
      <point x="762" y="650" type="line"/>
    </contour>
    <contour>
      <point x="403" y="226" type="line"/>
      <point x="403" y="297"/>
      <point x="306" y="359"/>
      <point x="239" y="359" type="curve" smooth="yes"/>
      <point x="139" y="359"/>
      <point x="57" y="283"/>
      <point x="57" y="201" type="curve" smooth="yes"/>
      <point x="57" y="56"/>
      <point x="245" y="-84"/>
      <point x="410" y="-152" type="curve"/>
      <point x="427" y="-117" type="line"/>
      <point x="234" y="-23"/>
      <point x="145" y="68"/>
      <point x="145" y="173" type="curve" smooth="yes"/>
      <point x="145" y="250"/>
      <point x="208" y="305"/>
      <point x="266" y="305" type="curve" smooth="yes"/>
      <point x="305" y="305"/>
      <point x="315" y="285"/>
      <point x="315" y="254" type="curve"/>
      <point x="315" y="108" type="line"/>
      <point x="673" y="108" type="line"/>
      <point x="673" y="183" type="line"/>
      <point x="251" y="183" type="line"/>
      <point x="244" y="115"/>
      <point x="287" y="38"/>
      <point x="335" y="38" type="curve" smooth="yes"/>
      <point x="390" y="38"/>
      <point x="403" y="86"/>
      <point x="403" y="123" type="curve"/>
    </contour>
    <contour>
      <point x="640" y="650" type="move" name="top"/>
    </contour>
    <contour>
      <point x="640" y="-70" type="move" name="bottom"/>
    </contour>
  </outline>
</glyph>
<glyph name="hungarumlaut.cap" format="1">
  <advance width="346"/>
  <outline>
    <contour>
      <point x="287" y="742" type="line"/>
      <point x="338" y="775"/>
      <point x="416" y="821"/>
      <point x="461" y="879" type="curve"/>
      <point x="400" y="938" type="line"/>
      <point x="261" y="769" type="line"/>
    </contour>
    <contour>
      <point x="47" y="742" type="line"/>
      <point x="98" y="775"/>
      <point x="176" y="821"/>
      <point x="222" y="879" type="curve"/>
      <point x="160" y="938" type="line"/>
      <point x="21" y="769" type="line"/>
    </contour>
  </outline>
</glyph>
<glyph name="uni093F.0" format="1">
  <advance width="307"/>
  <outline>
    <contour>
      <point x="307" y="575" type="line"/>
      <point x="307" y="590" type="line"/>
      <point x="275" y="650" type="line"/>
      <point x="172" y="650" type="line"/>
      <point x="157" y="672"/>
      <point x="128" y="738"/>
      <point x="128" y="795" type="curve" smooth="yes"/>
      <point x="128" y="860"/>
      <point x="167" y="901"/>
      <point x="224" y="901" type="curve" smooth="yes"/>
      <point x="312" y="901"/>
      <point x="400" y="810"/>
      <point x="486" y="691" type="curve"/>
      <point x="522" y="712" type="line"/>
      <point x="443" y="834"/>
      <point x="315" y="980"/>
      <point x="188" y="980" type="curve" smooth="yes"/>
      <point x="101" y="980"/>
      <point x="34" y="922"/>
      <point x="34" y="842" type="curve" smooth="yes"/>
      <point x="34" y="773"/>
      <point x="80" y="701"/>
      <point x="117" y="650" type="curve"/>
      <point x="-31" y="650" type="line"/>
      <point x="-31" y="634" type="line"/>
      <point x="0" y="575" type="line"/>
      <point x="109" y="575" type="line"/>
      <point x="109" y="-1" type="line"/>
      <point x="182" y="-42" type="line"/>
      <point x="198" y="-42" type="line"/>
      <point x="198" y="575" type="line"/>
    </contour>
    <contour>
      <point x="522" y="712" type="move" name="imatra"/>
    </contour>
  </outline>
</glyph>
<glyph name="uni091C094D091E.akhn" format="1">
  <advance width="767"/>
  <outline>
    <contour>
      <point x="0" y="575" type="line"/>
      <point x="-31" y="634" type="line"/>
      <point x="-31" y="650" type="line"/>
      <point x="736" y="650" type="line"/>
      <point x="767" y="590" type="line"/>
      <point x="767" y="575" type="line"/>
      <point x="658" y="575" type="line"/>
      <point x="658" y="-42" type="line"/>
      <point x="642" y="-42" type="line"/>
      <point x="570" y="-1" type="line"/>
      <point x="570" y="575" type="line"/>
    </contour>
    <contour>
      <point x="602" y="415" type="line"/>
      <point x="198" y="415" type="line" smooth="yes"/>
      <point x="151" y="415"/>
      <point x="139" y="374"/>
      <point x="139" y="346" type="curve" smooth="yes"/>
      <point x="139" y="317"/>
      <point x="161" y="289"/>
      <point x="180" y="289" type="curve" smooth="yes"/>
      <point x="231" y="289"/>
      <point x="296" y="319"/>
      <point x="334" y="319" type="curve" smooth="yes"/>
      <point x="390" y="319"/>
      <point x="441" y="223"/>
      <point x="441" y="149" type="curve" smooth="yes"/>
      <point x="441" y="67"/>
      <point x="336" y="-3"/>
      <point x="222" y="-3" type="curve" smooth="yes"/>
      <point x="215" y="-3"/>
      <point x="207" y="-3"/>
      <point x="199" y="-2" type="curve"/>
      <point x="340" y="-134" type="line"/>
      <point x="294" y="-168" type="line"/>
      <point x="139" y="10" type="line"/>
      <point x="97" y="22"/>
      <point x="61" y="46"/>
      <point x="61" y="81" type="curve" smooth="yes"/>
      <point x="61" y="136"/>
      <point x="119" y="152"/>
      <point x="154" y="152" type="curve" smooth="yes"/>
      <point x="166" y="152"/>
      <point x="180" y="150"/>
      <point x="187" y="147" type="curve"/>
      <point x="175" y="72" type="line"/>
      <point x="289" y="72"/>
      <point x="397" y="104"/>
      <point x="397" y="177" type="curve" smooth="yes"/>
      <point x="397" y="201"/>
      <point x="388" y="237"/>
      <point x="372" y="244" type="curve"/>
      <point x="339" y="244"/>
      <point x="275" y="214"/>
      <point x="226" y="214" type="curve" smooth="yes"/>
      <point x="180" y="214"/>
      <point x="82" y="305"/>
      <point x="82" y="373" type="curve" smooth="yes"/>
      <point x="82" y="447"/>
      <point x="116" y="495"/>
      <point x="175" y="495" type="curve" smooth="yes"/>
      <point x="602" y="495" type="line"/>
    </contour>
    <contour>
      <point x="614" y="650" type="move" name="top"/>
    </contour>
    <contour>
      <point x="614" y="0" type="move" name="bottom"/>
    </contour>
  </outline>
</glyph>
<glyph name="uni0915094D0937094D0930" format="1">
  <advance width="932"/>
  <outline>
    <contour>
      <point x="166" y="559"/>
      <point x="225" y="587"/>
      <point x="279" y="587" type="curve" smooth="yes"/>
      <point x="313" y="587"/>
      <point x="364" y="547"/>
      <point x="364" y="512" type="curve" smooth="yes"/>
      <point x="364" y="458"/>
      <point x="315" y="420"/>
      <point x="258" y="387" type="curve"/>
      <point x="206" y="413"/>
      <point x="166" y="466"/>
      <point x="166" y="496" type="curve" smooth="yes"/>
    </contour>
    <contour>
      <point x="53" y="113"/>
      <point x="212" y="8"/>
      <point x="284" y="8" type="curve" smooth="yes"/>
      <point x="360" y="8"/>
      <point x="448" y="41"/>
      <point x="448" y="121" type="curve" smooth="yes"/>
      <point x="448" y="163"/>
      <point x="422" y="194"/>
      <point x="367" y="194" type="curve" smooth="yes"/>
      <point x="344" y="194"/>
      <point x="317" y="186"/>
      <point x="290" y="166" type="curve"/>
      <point x="337" y="59" type="line"/>
      <point x="335" y="95" type="line"/>
      <point x="305" y="83"/>
      <point x="268" y="74"/>
      <point x="237" y="74" type="curve" smooth="yes"/>
      <point x="181" y="74"/>
      <point x="142" y="127"/>
      <point x="142" y="178" type="curve" smooth="yes"/>
      <point x="142" y="251"/>
      <point x="231" y="275"/>
      <point x="310" y="319" type="curve"/>
      <point x="375" y="277"/>
      <point x="468" y="248"/>
      <point x="562" y="248" type="curve" smooth="yes"/>
      <point x="615" y="248"/>
      <point x="691" y="265"/>
      <point x="732" y="278" type="curve"/>
      <point x="734" y="278" type="line"/>
      <point x="734" y="231" type="line"/>
      <point x="506" y="70" type="line"/>
      <point x="562" y="10" type="line"/>
      <point x="732" y="142" type="line"/>
      <point x="736" y="140" type="line"/>
      <point x="732" y="0" type="line"/>
      <point x="806" y="-42" type="line"/>
      <point x="823" y="-42" type="line"/>
      <point x="823" y="575" type="line"/>
      <point x="932" y="575" type="line"/>
      <point x="932" y="590" type="line"/>
      <point x="900" y="650" type="line"/>
      <point x="519" y="650" type="line"/>
      <point x="519" y="634" type="line"/>
      <point x="550" y="575" type="line"/>
      <point x="734" y="575" type="line"/>
      <point x="734" y="385" type="line"/>
      <point x="672" y="350"/>
      <point x="582" y="324"/>
      <point x="522" y="324" type="curve" smooth="yes"/>
      <point x="464" y="324"/>
      <point x="394" y="332"/>
      <point x="348" y="343" type="curve"/>
      <point x="393" y="374"/>
      <point x="428" y="417"/>
      <point x="428" y="487" type="curve" smooth="yes"/>
      <point x="428" y="561"/>
      <point x="312" y="667"/>
      <point x="248" y="667" type="curve" smooth="yes"/>
      <point x="162" y="667"/>
      <point x="77" y="616"/>
      <point x="77" y="520" type="curve" smooth="yes"/>
      <point x="77" y="463"/>
      <point x="138" y="407"/>
      <point x="218" y="366" type="curve"/>
      <point x="138" y="325"/>
      <point x="53" y="288"/>
      <point x="53" y="226" type="curve"/>
    </contour>
    <contour>
      <point x="351" y="27" type="line"/>
      <point x="419" y="-129" type="line"/>
      <point x="468" y="-104" type="line"/>
      <point x="386" y="39" type="line"/>
    </contour>
    <contour>
      <point x="778" y="650" type="move" name="top"/>
    </contour>
    <contour>
      <point x="778" y="0" type="move" name="bottom"/>
    </contour>
  </outline>
</glyph>
<glyph name="uni0932094D0932" format="1">
  <advance width="1270"/>
  <outline>
    <component base="uni0932094D"/>
    <component base="uni0932" xOffset="521"/>
    <contour>
      <point x="30" y="0" type="move" name="nukta"/>
    </contour>
    <contour>
      <point x="1116" y="0" type="move" name="bottom"/>
    </contour>
    <contour>
      <point x="1116" y="650" type="move" name="top"/>
    </contour>
  </outline>
</glyph>
<glyph name="uni0933094D0930" format="1">
  <advance width="811"/>
  <outline>
    <contour>
      <point x="436" y="-31" type="line"/>
      <point x="580" y="-176" type="line"/>
      <point x="628" y="-140" type="line"/>
      <point x="433" y="49" type="line"/>
      <point x="184" y="-109" type="line"/>
      <point x="255" y="-173" type="line"/>
    </contour>
    <component base="lladeva"/>
  </outline>
</glyph>
<glyph name="uni0919094D0918" format="1">
  <advance width="704"/>
  <outline>
    <contour>
      <point x="-31" y="650" type="line"/>
      <point x="-31" y="634" type="line"/>
      <point x="0" y="575" type="line"/>
      <point x="366" y="575" type="line"/>
      <point x="366" y="495" type="line"/>
      <point x="213" y="495" type="line" smooth="yes"/>
      <point x="159" y="495"/>
      <point x="123" y="468"/>
      <point x="123" y="413" type="curve" smooth="yes"/>
      <point x="123" y="363"/>
      <point x="226" y="269"/>
      <point x="264" y="269" type="curve" smooth="yes"/>
      <point x="302" y="269"/>
      <point x="359" y="298"/>
      <point x="420" y="298" type="curve"/>
      <point x="431" y="292"/>
      <point x="442" y="274"/>
      <point x="442" y="255" type="curve" smooth="yes"/>
      <point x="442" y="215"/>
      <point x="393" y="188"/>
      <point x="321" y="188" type="curve" smooth="yes"/>
      <point x="224" y="188"/>
      <point x="148" y="223"/>
      <point x="54" y="347" type="curve"/>
      <point x="17" y="310" type="line"/>
      <point x="131" y="174"/>
      <point x="239" y="125"/>
      <point x="348" y="121" type="curve"/>
      <point x="475" y="121"/>
      <point x="513" y="183"/>
      <point x="513" y="232" type="curve" smooth="yes"/>
      <point x="513" y="277"/>
      <point x="436" y="364"/>
      <point x="379" y="364" type="curve" smooth="yes"/>
      <point x="345" y="364"/>
      <point x="253" y="339"/>
      <point x="237" y="339" type="curve" smooth="yes"/>
      <point x="225" y="339"/>
      <point x="208" y="355"/>
      <point x="208" y="379" type="curve" smooth="yes"/>
      <point x="208" y="397"/>
      <point x="218" y="425"/>
      <point x="245" y="425" type="curve" smooth="yes"/>
      <point x="455" y="425" type="line"/>
      <point x="455" y="575" type="line"/>
      <point x="704" y="575" type="line"/>
      <point x="704" y="590" type="line"/>
      <point x="671" y="650" type="line"/>
    </contour>
    <contour>
      <point x="607" y="313" type="line"/>
      <point x="684" y="392" type="line"/>
      <point x="606" y="470" type="line"/>
      <point x="530" y="391" type="line"/>
    </contour>
    <contour>
      <point x="117" y="249" type="line"/>
      <point x="77" y="211"/>
      <point x="62" y="185"/>
      <point x="62" y="146" type="curve" smooth="yes"/>
      <point x="62" y="92"/>
      <point x="115" y="64"/>
      <point x="170" y="40" type="curve"/>
      <point x="128" y="20"/>
      <point x="99" y="-15"/>
      <point x="99" y="-52" type="curve" smooth="yes"/>
      <point x="99" y="-79"/>
      <point x="114" y="-108"/>
      <point x="173" y="-150" type="curve" smooth="yes"/>
      <point x="207" y="-174"/>
      <point x="241" y="-190"/>
      <point x="280" y="-190" type="curve" smooth="yes"/>
      <point x="318" y="-190"/>
      <point x="362" y="-176"/>
      <point x="426" y="-125" type="curve"/>
      <point x="428" y="-3" type="line"/>
      <point x="386" y="-61"/>
      <point x="286" y="-119"/>
      <point x="228" y="-119" type="curve" smooth="yes"/>
      <point x="206" y="-119"/>
      <point x="175" y="-110"/>
      <point x="175" y="-79" type="curve" smooth="yes"/>
      <point x="175" y="-51"/>
      <point x="215" y="-3"/>
      <point x="263" y="-3" type="curve" smooth="yes"/>
      <point x="281" y="-3"/>
      <point x="296" y="-7"/>
      <point x="325" y="-11" type="curve"/>
      <point x="335" y="14" type="line"/>
      <point x="319" y="53" type="line"/>
      <point x="293" y="63"/>
      <point x="268" y="68"/>
      <point x="251" y="68" type="curve" smooth="yes"/>
      <point x="239" y="68"/>
      <point x="234" y="67"/>
      <point x="229" y="66" type="curve" smooth="yes"/>
      <point x="198" y="60"/>
      <point x="144" y="85"/>
      <point x="144" y="122" type="curve" smooth="yes"/>
      <point x="144" y="146"/>
      <point x="156" y="169"/>
      <point x="178" y="184" type="curve"/>
    </contour>
    <contour>
      <point x="406" y="175" type="line"/>
      <point x="406" y="-202" type="line"/>
      <point x="467" y="-236" type="line"/>
      <point x="483" y="-236" type="line"/>
      <point x="483" y="233" type="line"/>
    </contour>
    <contour>
      <point x="410" y="650" type="move" name="top"/>
    </contour>
    <contour>
      <point x="445" y="-202" type="move" name="bottom"/>
    </contour>
  </outline>
</glyph>
<glyph name="uni091E094D" format="1">
  <advance width="487"/>
  <outline>
    <contour>
      <point x="264" y="451"/>
      <point x="224" y="433"/>
      <point x="184" y="406" type="curve"/>
      <point x="245" y="331" type="line"/>
      <point x="272" y="352"/>
      <point x="312" y="376"/>
      <point x="340" y="376" type="curve" smooth="yes"/>
      <point x="386" y="376"/>
      <point x="408" y="332"/>
      <point x="408" y="300" type="curve" smooth="yes"/>
      <point x="408" y="245"/>
      <point x="361" y="203"/>
      <point x="297" y="203" type="curve" smooth="yes"/>
      <point x="218" y="203"/>
      <point x="148" y="259"/>
      <point x="48" y="359" type="curve"/>
      <point x="14" y="331" type="line"/>
      <point x="122" y="202"/>
      <point x="227" y="119"/>
      <point x="326" y="119" type="curve" smooth="yes"/>
      <point x="422" y="119"/>
      <point x="480" y="200"/>
      <point x="480" y="278" type="curve"/>
      <point x="480" y="366"/>
      <point x="368" y="451"/>
      <point x="293" y="451" type="curve" smooth="yes"/>
    </contour>
    <contour>
      <point x="537" y="271"/>
      <point x="495" y="265"/>
      <point x="461" y="266" type="curve"/>
      <point x="427" y="213" type="line"/>
      <point x="470" y="213" type="line"/>
      <point x="485" y="206"/>
      <point x="511" y="198"/>
      <point x="536" y="198" type="curve"/>
      <point x="566" y="198"/>
      <point x="586" y="213"/>
      <point x="603" y="230" type="curve"/>
      <point x="562" y="292" type="line"/>
    </contour>
    <contour>
      <point x="-31" y="650" type="line"/>
      <point x="-31" y="634" type="line"/>
      <point x="0" y="575" type="line"/>
      <point x="519" y="575" type="line"/>
      <point x="519" y="590" type="line"/>
      <point x="487" y="650" type="line"/>
    </contour>
  </outline>
</glyph>
<glyph name="uni091E094D091C" format="1">
  <advance width="754"/>
  <outline>
    <contour>
      <point x="-31" y="650" type="line"/>
      <point x="-31" y="634" type="line"/>
      <point x="0" y="575" type="line"/>
      <point x="556" y="575" type="line"/>
      <point x="556" y="-1" type="line"/>
      <point x="630" y="-42" type="line"/>
      <point x="645" y="-42" type="line"/>
      <point x="645" y="575" type="line"/>
      <point x="754" y="575" type="line"/>
      <point x="754" y="590" type="line"/>
      <point x="723" y="650" type="line"/>
    </contour>
    <contour>
      <point x="221" y="186" type="line"/>
      <point x="216" y="150" type="line"/>
      <point x="255" y="140"/>
      <point x="323" y="124"/>
      <point x="323" y="77" type="curve" smooth="yes"/>
      <point x="323" y="41"/>
      <point x="269" y="30"/>
      <point x="241" y="30" type="curve" smooth="yes"/>
      <point x="165" y="30"/>
      <point x="93" y="94"/>
      <point x="60" y="131" type="curve"/>
      <point x="21" y="103" type="line"/>
      <point x="70" y="46"/>
      <point x="170" y="-49"/>
      <point x="273" y="-49" type="curve" smooth="yes"/>
      <point x="333" y="-49"/>
      <point x="410" y="-13"/>
      <point x="410" y="50" type="curve" smooth="yes"/>
      <point x="410" y="80"/>
      <point x="388" y="118"/>
      <point x="344" y="141" type="curve"/>
      <point x="325" y="185" type="line"/>
      <point x="302" y="130" type="line"/>
      <point x="576" y="202" type="line"/>
      <point x="556" y="274" type="line"/>
    </contour>
    <contour>
      <point x="249" y="529"/>
      <point x="221" y="523"/>
      <point x="176" y="494" type="curve"/>
      <point x="236" y="419" type="line"/>
      <point x="270" y="445"/>
      <point x="297" y="454"/>
      <point x="321" y="454" type="curve" smooth="yes"/>
      <point x="368" y="454"/>
      <point x="389" y="422"/>
      <point x="389" y="397" type="curve" smooth="yes"/>
      <point x="389" y="363"/>
      <point x="345" y="330"/>
      <point x="278" y="330" type="curve" smooth="yes"/>
      <point x="207" y="330"/>
      <point x="154" y="353"/>
      <point x="59" y="442" type="curve"/>
      <point x="24" y="414" type="line"/>
      <point x="133" y="295"/>
      <point x="219" y="246"/>
      <point x="307" y="246" type="curve" smooth="yes"/>
      <point x="409" y="246"/>
      <point x="462" y="312"/>
      <point x="462" y="374" type="curve"/>
      <point x="462" y="447"/>
      <point x="347" y="529"/>
      <point x="274" y="529" type="curve" smooth="yes"/>
    </contour>
    <contour>
      <point x="462" y="315" type="move"/>
    </contour>
    <contour>
      <point x="423" y="412" type="line"/>
      <point x="423" y="337" type="line"/>
      <point x="574" y="337" type="line"/>
      <point x="574" y="412" type="line"/>
    </contour>
    <contour>
      <point x="600" y="650" type="move" name="top"/>
    </contour>
    <contour>
      <point x="600" y="0" type="move" name="bottom"/>
    </contour>
  </outline>
</glyph>
<glyph name="uni092A094D0932" format="1">
  <advance width="1088"/>
  <outline>
    <component base="uni092A094D"/>
    <component base="uni0932" xOffset="339"/>
    <contour>
      <point x="114" y="80" type="move" name="nukta"/>
    </contour>
    <contour>
      <point x="936" y="0" type="move" name="bottom"/>
    </contour>
    <contour>
      <point x="936" y="650" type="move" name="top"/>
    </contour>
  </outline>
</glyph>
<glyph name="uni092B094D0932" format="1">
  <advance width="1343"/>
  <outline>
    <component base="uni092B094D"/>
    <component base="uni0932" xOffset="594"/>
    <contour>
      <point x="114" y="80" type="move" name="nukta"/>
    </contour>
    <contour>
      <point x="1191" y="0" type="move" name="bottom"/>
    </contour>
    <contour>
      <point x="1191" y="650" type="move" name="top"/>
    </contour>
  </outline>
</glyph>
<glyph name="uni094D09300942" format="1">
  <advance width="0"/>
  <outline>
    <contour>
      <point x="-17" y="-539" type="line"/>
      <point x="-80" y="-450"/>
      <point x="-214" y="-254"/>
      <point x="-337" y="-254" type="curve" smooth="yes"/>
      <point x="-391" y="-254"/>
      <point x="-460" y="-299"/>
      <point x="-460" y="-381" type="curve" smooth="yes"/>
      <point x="-460" y="-454"/>
      <point x="-346" y="-527"/>
      <point x="-292" y="-527" type="curve" smooth="yes"/>
      <point x="-270" y="-527"/>
      <point x="-223" y="-508"/>
      <point x="-202" y="-498" type="curve"/>
      <point x="-256" y="-417" type="line"/>
      <point x="-280" y="-435"/>
      <point x="-315" y="-455"/>
      <point x="-341" y="-455" type="curve" smooth="yes"/>
      <point x="-371" y="-455"/>
      <point x="-407" y="-431"/>
      <point x="-407" y="-406" type="curve" smooth="yes"/>
      <point x="-407" y="-362"/>
      <point x="-370" y="-328"/>
      <point x="-313" y="-328" type="curve" smooth="yes"/>
      <point x="-219" y="-328"/>
      <point x="-110" y="-491"/>
      <point x="-60" y="-559" type="curve"/>
    </contour>
    <contour>
      <point x="-485" y="-253" type="line"/>
      <point x="-304" y="-111" type="line"/>
      <point x="-160" y="-256" type="line"/>
      <point x="-112" y="-220" type="line"/>
      <point x="-307" y="-31" type="line"/>
      <point x="-556" y="-189" type="line"/>
    </contour>
    <contour>
      <point x="-307" y="0" type="move" name="_bottom"/>
    </contour>
  </outline>
</glyph>
<glyph name="uni0930094D" format="1">
  <advance width="600"/>
  <outline>
    <contour>
      <point x="231" y="1050"/>
      <point x="145" y="1008"/>
      <point x="145" y="917" type="curve" smooth="yes"/>
      <point x="145" y="836"/>
      <point x="210" y="755"/>
      <point x="292" y="684" type="curve"/>
      <point x="317" y="715" type="line"/>
      <point x="317" y="717" type="line"/>
      <point x="277" y="754"/>
      <point x="229" y="821"/>
      <point x="229" y="881" type="curve" smooth="yes"/>
      <point x="229" y="945"/>
      <point x="270" y="976"/>
      <point x="318" y="976" type="curve" smooth="yes"/>
      <point x="364" y="976"/>
      <point x="416" y="950"/>
      <point x="437" y="933" type="curve"/>
      <point x="464" y="975" type="line"/>
      <point x="421" y="1021"/>
      <point x="363" y="1050"/>
      <point x="301" y="1050" type="curve"/>
    </contour>
  </outline>
</glyph>
<glyph name="uni0938094D0930" format="1">
  <advance width="870"/>
  <outline>
    <contour>
      <point x="186" y="585" type="line"/>
      <point x="194" y="549"/>
      <point x="199" y="482"/>
      <point x="199" y="450" type="curve" smooth="yes"/>
      <point x="199" y="407"/>
      <point x="184" y="358"/>
      <point x="174" y="340" type="curve"/>
      <point x="119" y="382" type="line"/>
      <point x="100" y="370"/>
      <point x="66" y="340"/>
      <point x="66" y="306" type="curve" smooth="yes"/>
      <point x="66" y="272"/>
      <point x="89" y="250"/>
      <point x="126" y="207" type="curve" smooth="yes"/>
      <point x="347" y="-47" type="line"/>
      <point x="396" y="-10" type="line"/>
      <point x="187" y="211" type="line"/>
      <point x="237" y="256"/>
      <point x="280" y="314"/>
      <point x="280" y="404" type="curve" smooth="yes"/>
      <point x="280" y="466"/>
      <point x="270" y="542"/>
      <point x="261" y="585" type="curve"/>
    </contour>
    <contour>
      <point x="366" y="173" type="line"/>
      <point x="427" y="104" type="line"/>
      <point x="679" y="238" type="line"/>
      <point x="683" y="322" type="line"/>
    </contour>
    <contour>
      <point x="394" y="466"/>
      <point x="314" y="453"/>
      <point x="251" y="441" type="curve"/>
      <point x="250" y="342" type="line"/>
      <point x="296" y="358"/>
      <point x="416" y="381"/>
      <point x="468" y="381" type="curve" smooth="yes"/>
      <point x="515" y="381"/>
      <point x="587" y="366"/>
      <point x="660" y="302" type="curve"/>
      <point x="662" y="353" type="line"/>
      <point x="587" y="412"/>
      <point x="498" y="466"/>
      <point x="429" y="466" type="curve" smooth="yes"/>
    </contour>
    <contour>
      <point x="653" y="605" type="line"/>
      <point x="653" y="270" type="line"/>
      <point x="628" y="241" type="line"/>
      <point x="656" y="222" type="line"/>
      <point x="652" y="0" type="line"/>
      <point x="727" y="-42" type="line"/>
      <point x="742" y="-42" type="line"/>
      <point x="742" y="605" type="line"/>
    </contour>
    <contour>
      <point x="-31" y="650" type="line"/>
      <point x="-31" y="634" type="line"/>
      <point x="0" y="575" type="line"/>
      <point x="870" y="575" type="line"/>
      <point x="870" y="590" type="line"/>
      <point x="839" y="650" type="line"/>
    </contour>
    <contour>
      <point x="697" y="650" type="move" name="top"/>
    </contour>
    <contour>
      <point x="697" y="0" type="move" name="bottom"/>
    </contour>
  </outline>
</glyph>
<glyph name="uni0936094D0930094D091A" format="1">
  <advance width="705"/>
  <outline>
    <contour>
      <point x="705" y="575" type="line"/>
      <point x="705" y="590" type="line"/>
      <point x="672" y="650" type="line"/>
      <point x="398" y="650" type="line"/>
      <point x="398" y="634" type="line"/>
      <point x="429" y="575" type="line"/>
      <point x="507" y="575" type="line"/>
      <point x="507" y="351" type="line"/>
      <point x="445" y="346"/>
      <point x="376" y="352"/>
      <point x="314" y="369" type="curve"/>
      <point x="357" y="415"/>
      <point x="388" y="464"/>
      <point x="388" y="507" type="curve" smooth="yes"/>
      <point x="388" y="577"/>
      <point x="299" y="659"/>
      <point x="224" y="659" type="curve" smooth="yes"/>
      <point x="160" y="659"/>
      <point x="81" y="596"/>
      <point x="81" y="528" type="curve" smooth="yes"/>
      <point x="81" y="467"/>
      <point x="126" y="416"/>
      <point x="195" y="373" type="curve"/>
      <point x="135" y="329"/>
      <point x="62" y="287"/>
      <point x="0" y="250" type="curve"/>
      <point x="80" y="182" type="line"/>
      <point x="127" y="214"/>
      <point x="210" y="268"/>
      <point x="276" y="332" type="curve"/>
      <point x="330" y="316"/>
      <point x="388" y="302"/>
      <point x="448" y="291" type="curve"/>
      <point x="121" y="55" type="line"/>
      <point x="188" y="-3" type="line"/>
      <point x="508" y="272" type="line"/>
      <point x="508" y="271" type="line"/>
      <point x="507" y="141" type="line"/>
      <point x="514" y="75" type="line"/>
      <point x="513" y="-5" type="line"/>
      <point x="579" y="-42" type="line"/>
      <point x="595" y="-42" type="line"/>
      <point x="595" y="575" type="line"/>
    </contour>
    <contour>
      <point x="157" y="549"/>
      <point x="203" y="597"/>
      <point x="250" y="597" type="curve" smooth="yes"/>
      <point x="292" y="597"/>
      <point x="315" y="568"/>
      <point x="315" y="529" type="curve" smooth="yes"/>
      <point x="315" y="488"/>
      <point x="284" y="447"/>
      <point x="237" y="407" type="curve"/>
      <point x="189" y="435"/>
      <point x="157" y="468"/>
      <point x="157" y="503" type="curve" smooth="yes"/>
    </contour>
    <contour>
      <point x="256" y="-1"/>
      <point x="300" y="-34"/>
      <point x="365" y="-34" type="curve" smooth="yes"/>
      <point x="496" y="-34"/>
      <point x="541" y="99"/>
      <point x="560" y="158" type="curve"/>
      <point x="508" y="265" type="line"/>
      <point x="498" y="138"/>
      <point x="421" y="7"/>
      <point x="368" y="7" type="curve" smooth="yes"/>
      <point x="346" y="7"/>
      <point x="333" y="21"/>
      <point x="333" y="58" type="curve" smooth="yes"/>
      <point x="333" y="96"/>
      <point x="349" y="135"/>
      <point x="381" y="163" type="curve"/>
      <point x="255" y="55" type="line"/>
    </contour>
    <contour>
      <point x="550" y="650" type="move" name="top"/>
    </contour>
    <contour>
      <point x="550" y="0" type="move" name="bottom"/>
    </contour>
  </outline>
</glyph>
<glyph name="uni0937094D0930" format="1">
  <advance width="617"/>
  <outline>
    <contour>
      <point x="617" y="575" type="line"/>
      <point x="617" y="590" type="line"/>
      <point x="586" y="650" type="line"/>
      <point x="-31" y="650" type="line"/>
      <point x="-31" y="634" type="line"/>
      <point x="0" y="575" type="line"/>
      <point x="87" y="575" type="line"/>
      <point x="87" y="309" type="line" smooth="yes"/>
      <point x="87" y="272"/>
      <point x="108" y="245"/>
      <point x="144" y="208" type="curve" smooth="yes"/>
      <point x="181" y="171"/>
      <point x="234" y="143"/>
      <point x="279" y="143" type="curve" smooth="yes"/>
      <point x="335" y="143"/>
      <point x="385" y="164"/>
      <point x="418" y="180" type="curve"/>
      <point x="420" y="180" type="line"/>
      <point x="420" y="-1" type="line"/>
      <point x="492" y="-42" type="line"/>
      <point x="508" y="-42" type="line"/>
      <point x="508" y="575" type="line"/>
    </contour>
    <contour>
      <point x="230" y="211"/>
      <point x="176" y="224"/>
      <point x="176" y="294" type="curve" smooth="yes"/>
      <point x="176" y="524" type="line"/>
      <point x="413" y="274" type="line"/>
      <point x="376" y="245"/>
      <point x="317" y="211"/>
      <point x="263" y="211" type="curve" smooth="yes"/>
    </contour>
    <contour>
      <point x="176" y="575" type="line"/>
      <point x="420" y="575" type="line"/>
      <point x="420" y="317" type="line"/>
    </contour>
    <contour>
      <point x="75" y="25" type="line"/>
      <point x="137" y="-43" type="line"/>
      <point x="418" y="180" type="line"/>
      <point x="264" y="157" type="line"/>
    </contour>
    <contour>
      <point x="464" y="650" type="move" name="top"/>
    </contour>
    <contour>
      <point x="464" y="0" type="move" name="bottom"/>
    </contour>
  </outline>
</glyph>
<glyph name="uni0924094D0924094D" format="1">
  <advance width="423"/>
  <outline>
    <contour>
      <point x="375" y="6" type="line"/>
      <point x="273" y="80"/>
      <point x="218" y="158"/>
      <point x="218" y="234" type="curve" smooth="yes"/>
      <point x="218" y="290"/>
      <point x="264" y="352"/>
      <point x="331" y="352" type="curve" smooth="yes"/>
      <point x="559" y="352" type="line"/>
      <point x="559" y="427" type="line"/>
      <point x="19" y="427" type="line"/>
      <point x="19" y="412" type="line"/>
      <point x="50" y="352" type="line"/>
      <point x="171" y="352" type="line"/>
      <point x="149" y="326"/>
      <point x="139" y="294"/>
      <point x="139" y="266" type="curve" smooth="yes"/>
      <point x="139" y="144"/>
      <point x="242" y="52"/>
      <point x="346" y="-25" type="curve"/>
    </contour>
    <contour>
      <point x="454" y="575" type="line"/>
      <point x="454" y="590" type="line"/>
      <point x="423" y="650" type="line"/>
      <point x="-31" y="650" type="line"/>
      <point x="-31" y="634" type="line"/>
      <point x="0" y="575" type="line"/>
    </contour>
  </outline>
</glyph>
<glyph name="uni091F094D0920" format="1">
  <advance width="554"/>
  <outline>
    <contour>
      <point x="-31" y="650" type="line"/>
      <point x="-31" y="634" type="line"/>
      <point x="0" y="575" type="line"/>
      <point x="314" y="575" type="line"/>
      <point x="314" y="501" type="line"/>
      <point x="203" y="497"/>
      <point x="69" y="447"/>
      <point x="69" y="320" type="curve" smooth="yes"/>
      <point x="69" y="224"/>
      <point x="152" y="121"/>
      <point x="302" y="121" type="curve" smooth="yes"/>
      <point x="369" y="121"/>
      <point x="436" y="131"/>
      <point x="529" y="177" type="curve"/>
      <point x="487" y="259" type="line"/>
      <point x="393" y="206"/>
      <point x="322" y="197"/>
      <point x="268" y="197" type="curve" smooth="yes"/>
      <point x="191" y="197"/>
      <point x="123" y="228"/>
      <point x="123" y="291" type="curve" smooth="yes"/>
      <point x="123" y="385"/>
      <point x="259" y="417"/>
      <point x="403" y="419" type="curve"/>
      <point x="403" y="575" type="line"/>
      <point x="554" y="575" type="line"/>
      <point x="554" y="590" type="line"/>
      <point x="522" y="650" type="line"/>
    </contour>
    <contour>
      <point x="402" y="-20"/>
      <point x="455" y="-53"/>
      <point x="455" y="-94" type="curve" smooth="yes"/>
      <point x="455" y="-163"/>
      <point x="402" y="-228"/>
      <point x="245" y="-228" type="curve" smooth="yes"/>
      <point x="195" y="-228"/>
      <point x="118" y="-200"/>
      <point x="118" y="-131" type="curve" smooth="yes"/>
      <point x="118" y="-44"/>
      <point x="260" y="-15"/>
      <point x="366" y="-8" type="curve"/>
    </contour>
    <contour>
      <point x="312" y="69" type="line"/>
      <point x="172" y="55"/>
      <point x="65" y="20"/>
      <point x="65" y="-102" type="curve" smooth="yes"/>
      <point x="65" y="-206"/>
      <point x="155" y="-305"/>
      <point x="277" y="-305" type="curve" smooth="yes"/>
      <point x="445" y="-305"/>
      <point x="528" y="-224"/>
      <point x="528" y="-126" type="curve" smooth="yes"/>
      <point x="528" y="-46"/>
      <point x="461" y="-3"/>
      <point x="393" y="40" type="curve"/>
      <point x="337" y="71" type="line"/>
    </contour>
    <contour>
      <point x="319" y="2" type="line"/>
      <point x="398" y="2" type="line"/>
      <point x="398" y="151" type="line"/>
      <point x="319" y="151" type="line"/>
    </contour>
    <contour>
      <point x="358" y="650" type="move" name="top"/>
    </contour>
    <contour>
      <point x="369" y="-305" type="move" name="bottom"/>
    </contour>
  </outline>
</glyph>
<glyph name="uni091F094D0935" format="1">
  <advance width="554"/>
  <outline>
    <contour>
      <point x="-31" y="650" type="line"/>
      <point x="-31" y="634" type="line"/>
      <point x="0" y="575" type="line"/>
      <point x="314" y="575" type="line"/>
      <point x="314" y="501" type="line"/>
      <point x="203" y="497"/>
      <point x="69" y="447"/>
      <point x="69" y="320" type="curve" smooth="yes"/>
      <point x="69" y="224"/>
      <point x="152" y="121"/>
      <point x="302" y="121" type="curve" smooth="yes"/>
      <point x="369" y="121"/>
      <point x="436" y="131"/>
      <point x="529" y="177" type="curve"/>
      <point x="486" y="255" type="line"/>
      <point x="392" y="202"/>
      <point x="321" y="193"/>
      <point x="267" y="193" type="curve" smooth="yes"/>
      <point x="190" y="193"/>
      <point x="123" y="225"/>
      <point x="123" y="291" type="curve" smooth="yes"/>
      <point x="123" y="385"/>
      <point x="259" y="417"/>
      <point x="403" y="419" type="curve"/>
      <point x="403" y="575" type="line"/>
      <point x="554" y="575" type="line"/>
      <point x="554" y="590" type="line"/>
      <point x="522" y="650" type="line"/>
    </contour>
    <contour>
      <point x="389" y="175" type="line"/>
      <point x="389" y="-202" type="line"/>
      <point x="450" y="-236" type="line"/>
      <point x="466" y="-236" type="line"/>
      <point x="466" y="233" type="line"/>
    </contour>
    <contour>
      <point x="178" y="111"/>
      <point x="115" y="54"/>
      <point x="115" y="-11" type="curve" smooth="yes"/>
      <point x="115" y="-103"/>
      <point x="179" y="-153"/>
      <point x="256" y="-153" type="curve" smooth="yes"/>
      <point x="323" y="-153"/>
      <point x="360" y="-127"/>
      <point x="406" y="-98" type="curve"/>
      <point x="406" y="-11" type="line"/>
      <point x="368" y="-42"/>
      <point x="310" y="-98"/>
      <point x="231" y="-98" type="curve" smooth="yes"/>
      <point x="193" y="-98"/>
      <point x="162" y="-77"/>
      <point x="162" y="-40" type="curve" smooth="yes"/>
      <point x="162" y="5"/>
      <point x="210" y="32"/>
      <point x="265" y="32" type="curve" smooth="yes"/>
      <point x="323" y="32"/>
      <point x="373" y="-1"/>
      <point x="391" y="-28" type="curve"/>
      <point x="397" y="11" type="line"/>
      <point x="366" y="60"/>
      <point x="301" y="111"/>
      <point x="230" y="111" type="curve" smooth="yes"/>
    </contour>
    <contour>
      <point x="358" y="650" type="move" name="top"/>
    </contour>
    <contour>
      <point x="432" y="-284" type="move" name="bottom"/>
    </contour>
  </outline>
</glyph>
<glyph name="uni092F094D0930" format="1">
  <advance width="637"/>
  <outline>
    <contour>
      <point x="637" y="575" type="line"/>
      <point x="637" y="590" type="line"/>
      <point x="606" y="650" type="line"/>
      <point x="-31" y="650" type="line"/>
      <point x="-31" y="634" type="line"/>
      <point x="0" y="575" type="line"/>
      <point x="131" y="575" type="line"/>
      <point x="173" y="532"/>
      <point x="199" y="500"/>
      <point x="199" y="458" type="curve" smooth="yes"/>
      <point x="199" y="393"/>
      <point x="123" y="346"/>
      <point x="54" y="325" type="curve"/>
      <point x="94" y="200"/>
      <point x="171" y="120"/>
      <point x="273" y="113" type="curve"/>
      <point x="141" y="-5" type="line"/>
      <point x="201" y="-70" type="line"/>
      <point x="438" y="169" type="line"/>
      <point x="442" y="167" type="line"/>
      <point x="438" y="0" type="line"/>
      <point x="512" y="-42" type="line"/>
      <point x="528" y="-42" type="line"/>
      <point x="528" y="575" type="line"/>
    </contour>
    <contour>
      <point x="192" y="183"/>
      <point x="142" y="218"/>
      <point x="141" y="273" type="curve"/>
      <point x="187" y="293"/>
      <point x="287" y="352"/>
      <point x="287" y="433" type="curve" smooth="yes"/>
      <point x="287" y="477"/>
      <point x="236" y="535"/>
      <point x="199" y="573" type="curve"/>
      <point x="199" y="575" type="line"/>
      <point x="440" y="575" type="line"/>
      <point x="440" y="273" type="line"/>
      <point x="404" y="232"/>
      <point x="324" y="183"/>
      <point x="247" y="183" type="curve" smooth="yes"/>
    </contour>
    <contour>
      <point x="484" y="650" type="move" name="top"/>
    </contour>
    <contour>
      <point x="484" y="0" type="move" name="bottom"/>
    </contour>
  </outline>
</glyph>
<glyph name="uni0979.loclNEP" format="1">
  <advance width="713"/>
  <outline>
    <contour>
      <point x="268" y="432"/>
      <point x="232" y="526"/>
      <point x="186" y="575" type="curve"/>
      <point x="-28" y="575" type="line"/>
      <point x="-60" y="634" type="line"/>
      <point x="-60" y="650" type="line"/>
      <point x="682" y="650" type="line"/>
      <point x="713" y="590" type="line"/>
      <point x="713" y="575" type="line"/>
      <point x="272" y="575" type="line"/>
      <point x="302" y="528"/>
      <point x="357" y="439"/>
      <point x="357" y="349" type="curve"/>
      <point x="357" y="258"/>
      <point x="297" y="174"/>
      <point x="190" y="174" type="curve"/>
      <point x="148" y="174"/>
      <point x="100" y="186"/>
      <point x="58" y="220" type="curve"/>
      <point x="36" y="282" type="line"/>
      <point x="50" y="298" type="line"/>
      <point x="85" y="261"/>
      <point x="124" y="251"/>
      <point x="163" y="251" type="curve"/>
      <point x="209" y="251"/>
      <point x="268" y="270"/>
      <point x="268" y="367" type="curve"/>
    </contour>
    <contour>
      <point x="351" y="462"/>
      <point x="389" y="466"/>
      <point x="414" y="466" type="curve" smooth="yes"/>
      <point x="556" y="466"/>
      <point x="639" y="340"/>
      <point x="639" y="227" type="curve" smooth="yes"/>
      <point x="639" y="98"/>
      <point x="545" y="43"/>
      <point x="477" y="43" type="curve"/>
      <point x="426" y="43"/>
      <point x="347" y="76"/>
      <point x="347" y="126" type="curve" smooth="yes"/>
      <point x="347" y="181"/>
      <point x="396" y="192"/>
      <point x="422" y="192" type="curve" smooth="yes"/>
      <point x="433" y="192"/>
      <point x="447" y="190"/>
      <point x="455" y="187" type="curve"/>
      <point x="468" y="112" type="line"/>
      <point x="533" y="136"/>
      <point x="587" y="179"/>
      <point x="587" y="258" type="curve" smooth="yes"/>
      <point x="587" y="339"/>
      <point x="519" y="388"/>
      <point x="448" y="388" type="curve"/>
      <point x="387" y="388"/>
      <point x="363" y="369"/>
      <point x="325" y="328" type="curve"/>
      <point x="328" y="456" type="line"/>
    </contour>
    <contour>
      <point x="636" y="-94" type="line"/>
      <point x="590" y="-128" type="line"/>
      <point x="423" y="64" type="line"/>
      <point x="467" y="65" type="line"/>
    </contour>
    <contour>
      <point x="212" y="650" type="move" name="top"/>
    </contour>
  </outline>
</glyph>
